<?xml version="1.0" encoding="UTF-8"?><svg id="_图层_2" xmlns="http://www.w3.org/2000/svg" xmlns:xlink="http://www.w3.org/1999/xlink" viewBox="0 0 102.72 70.52"><defs><style>.cls-1{fill:#fff;}.cls-1,.cls-2,.cls-3,.cls-4,.cls-5,.cls-6,.cls-7{stroke-width:0px;}.cls-1,.cls-4,.cls-6{fill-rule:evenodd;}.cls-8,.cls-2,.cls-9,.cls-10,.cls-11{fill:none;}.cls-8,.cls-10{stroke:#fff;stroke-miterlimit:22.93;}.cls-8,.cls-11{stroke-width:.22px;}.cls-9{stroke:#1f9ad8;stroke-miterlimit:10;stroke-width:.58px;}.cls-3{fill:#fcfbfb;}.cls-4{fill:#231815;}.cls-10{stroke-width:1.42px;}.cls-11{stroke:#040000;stroke-linejoin:bevel;}.cls-12{clip-path:url(#clippath);}.cls-5{fill:#ddd;}.cls-6,.cls-7{fill:#efefef;}</style><clipPath id="clippath"><rect class="cls-2" x=".29" y=".29" width="90.59" height="58.3"/></clipPath></defs><g id="_图层_1-2"><g class="cls-12"><path class="cls-11" d="M13.85,23.55c0-4.02-3.26-7.29-7.29-7.29S-.72,19.52-.72,23.55s3.26,7.29,7.29,7.29,7.29-3.26,7.29-7.29Z"/><path class="cls-11" d="M38.76,36.79c0-4.02-3.26-7.29-7.29-7.29s-7.29,3.26-7.29,7.29,3.26,7.29,7.29,7.29,7.29-3.26,7.29-7.29Z"/><path class="cls-11" d="M66.96,36.79c0-4.02-3.26-7.29-7.29-7.29s-7.29,3.26-7.29,7.29,3.26,7.29,7.29,7.29c4.02,0,7.29-3.26,7.29-7.29Z"/><path class="cls-11" d="M91.87,23.55c0-4.02-3.26-7.29-7.29-7.29s-7.29,3.26-7.29,7.29,3.26,7.29,7.29,7.29,7.29-3.26,7.29-7.29h0Z"/><path class="cls-4" d="M117.09-22.17c-1.22.13-2.15,1.16-2.15,2.39s.93,2.26,2.15,2.39c-1.29,38.57-32.93,69.17-71.52,69.17S-24.65,21.18-25.94-17.39c1.22-.13,2.15-1.16,2.15-2.39s-.93-2.26-2.15-2.39c1.29-38.57,32.93-69.17,71.52-69.17S115.8-60.74,117.09-22.17"/><polygon class="cls-7" points="85.2 19.5 85.21 22.91 88.59 22.89 88.59 24.16 85.21 24.18 85.23 27.58 83.97 27.59 83.96 24.18 80.58 24.2 80.57 22.93 83.95 22.91 83.94 19.51 85.2 19.5"/><path class="cls-6" d="M63.68,36.79v-.04s0-.04,0-.04v-.04s0-.04,0-.04v-.04s0-.04,0-.04v-.04s0-.04,0-.04v-.04s0-.04,0-.04v-.04s-.01-.04-.01-.04v-.04s-.01-.04-.01-.04v-.04s-.01-.04-.01-.04v-.04s-.02-.04-.02-.04v-.04s-.02-.04-.02-.04v-.04s-.02-.04-.02-.04v-.04s-.02-.04-.02-.04v-.04s-.02-.04-.02-.04v-.04s-.02-.04-.02-.04v-.04s-.03-.04-.03-.04v-.04s-.03-.04-.03-.04v-.04s-.03-.04-.03-.04v-.04s-.03-.04-.03-.04l-.02-.04-.02-.04-.02-.04-.02-.04-.02-.04-.02-.04-.02-.04-.02-.04-.02-.04-.02-.04-.02-.04-.02-.04-.02-.04-.02-.04-.02-.04-.02-.04-.02-.04-.02-.04-.02-.04-.02-.04-.02-.03-.02-.03-.03-.03-.02-.03-.03-.03-.03-.03-.03-.03-.03-.03-.03-.03-.03-.03-.03-.03-.03-.03-.03-.03-.03-.03-.03-.03-.03-.03-.03-.03-.03-.03-.03-.03-.03-.03-.03-.03-.03-.03-.03-.03-.03-.03-.03-.03-.03-.03-.03-.03-.03-.03-.03-.03-.03-.03-.03-.03-.03-.03-.03-.03-.03-.03-.03-.02-.03-.02-.03-.02-.04-.02-.03-.02-.04-.02-.04-.02-.04-.02-.04-.02-.04-.02-.04-.02-.04-.02-.04-.02-.04-.02-.04-.02-.04-.02-.04-.02-.04-.02-.04-.02-.04-.02-.04-.02-.04-.02-.04-.02-.04-.02h-.04s-.04-.03-.04-.03h-.04s-.04-.03-.04-.03h-.04s-.04-.03-.04-.03h-.04s-.04-.03-.04-.03h-.04s-.04-.02-.04-.02h-.04s-.04-.02-.04-.02h-.04s-.04-.02-.04-.02h-.04s-.04-.02-.04-.02h-.04s-.04-.02-.04-.02h-.04s-.04-.02-.04-.02h-.04s-.04-.01-.04-.01h-.04s-.04-.01-.04-.01h-.04s-.04-.01-.04-.01h-.04s-.04,0-.04,0h-.04s-.04,0-.04,0h-.04s-.04,0-.04,0h-.04s-.04,0-.04,0h-.08s-.04,0-.04,0h-.09s-.04,0-.04,0h-.04s-.04,0-.04,0h-.04s-.04,0-.04,0h-.04s-.04,0-.04,0h-.04s-.04.01-.04.01h-.04s-.04.01-.04.01h-.04s-.04.01-.04.01h-.04s-.04.02-.04.02h-.04s-.04.02-.04.02h-.04s-.04.02-.04.02h-.04s-.04.02-.04.02h-.04s-.04.02-.04.02h-.04s-.04.02-.04.02h-.04s-.04.03-.04.03h-.04s-.04.03-.04.03h-.04s-.04.03-.04.03h-.04s-.04.03-.04.03l-.04.02-.04.02-.04.02-.04.02-.04.02-.04.02-.04.02-.04.02-.04.02-.04.02-.04.02-.04.02-.04.02-.04.02-.04.02-.04.02-.04.02-.04.02-.04.02-.03.02-.04.02-.03.02-.03.02-.03.02-.03.03-.03.03-.03.03-.03.03-.03.03-.03.03-.03.03-.03.03-.03.03-.03.03-.03.03-.03.03-.03.03-.03.03-.03.03-.03.03-.03.03-.03.03-.03.03-.03.03-.03.03-.03.03-.03.03-.03.03-.03.03-.03.03-.03.03-.03.03-.03.03-.03.03-.02.03-.03.03-.02.03-.02.03-.02.04-.02.04-.02.04-.02.04-.02.04-.02.04-.02.04-.02.04-.02.04-.02.04-.02.04-.02.04-.02.04-.02.04-.02.04-.02.04-.02.04-.02.04-.02.04-.02.04v.04s-.03.04-.03.04v.04s-.03.04-.03.04v.04s-.03.04-.03.04v.04s-.03.04-.03.04v.04s-.02.04-.02.04v.04s-.02.04-.02.04v.04s-.02.04-.02.04v.04s-.02.04-.02.04v.04s-.02.04-.02.04v.04s-.01.04-.01.04v.04s-.01.04-.01.04v.04s-.01.04-.01.04v.04s-.01.04-.01.04v.04s0,.04,0,.04v.04s0,.04,0,.04v.04s0,.04,0,.04v.04s0,.04,0,.04v.08s0,.04,0,.04v.08s0,.04,0,.04v.04s0,.04,0,.04v.04s0,.04,0,.04v.04s0,.04,0,.04v.04s.01.04.01.04v.04s.01.04.01.04v.04s.01.04.01.04v.04s.01.04.01.04v.04s.02.04.02.04v.04s.02.04.02.04v.04s.02.04.02.04v.04s.02.04.02.04v.04s.02.04.02.04v.04s.03.04.03.04v.04s.03.04.03.04v.04s.03.04.03.04l.02.04v.04s.03.04.03.04l.02.04.02.04.02.04.02.04.02.04.02.04.02.04.02.04.02.04.02.04.02.04.02.04.02.04.02.04.02.04.02.04.02.04.02.04.02.03.02.04.02.03.03.03.02.03.03.03.03.03.03.03.03.03.03.03.03.03.03.03.03.03.03.03.03.03.03.03.03.03.03.03.03.03.03.03.03.03.03.03.03.03.03.03.03.03.03.03.03.03.03.03.03.03.03.03.03.03.03.03.03.03.03.03.03.02.03.03.03.02.03.02.04.02.03.02.04.02.04.02.04.02.04.02.04.02.04.02.04.02.04.02.04.02.04.02.04.02.04.02.04.02.04.02.04.02.04.02.04.02.04.02h.04s.04.03.04.03h.04s.04.03.04.03h.04s.04.03.04.03h.04s.04.03.04.03h.04s.04.02.04.02h.04s.04.02.04.02h.04s.04.02.04.02h.04s.04.02.04.02h.04s.04.02.04.02h.04s.04.02.04.02h.04s.04.01.04.01h.04s.04.01.04.01h.04s.04.01.04.01h.04s.04,0,.04,0h.04s.04,0,.04,0h.04s.04,0,.04,0h.04s.04,0,.04,0h.04s.04,0,.04,0h.17s.04,0,.04,0h.04s.04,0,.04,0h.04s.04,0,.04,0h.04s.04,0,.04,0h.04s.04-.01.04-.01h.04s.04-.01.04-.01h.04s.04-.01.04-.01h.04s.04-.01.04-.01h.04s.04-.02.04-.02h.04s.04-.02.04-.02h.04s.04-.02.04-.02h.04s.04-.02.04-.02h.04s.04-.02.04-.02h.04s.04-.02.04-.02h.04s.04-.03.04-.03h.04s.04-.03.04-.03h.04s.04-.03.04-.03h.04s.04-.03.04-.03l.04-.02.04-.02.04-.02.04-.02.04-.02.04-.02.04-.02.04-.02.04-.02.04-.02.04-.02.04-.02.04-.02.04-.02.04-.02.04-.02.04-.02.03-.02.04-.02.03-.02.03-.02.03-.03.03-.02.03-.03.03-.03.03-.03.03-.03.03-.03.03-.03.03-.03.03-.03.03-.03.03-.03.03-.03.03-.03.03-.03.03-.03.03-.03.03-.03.03-.03.03-.03.03-.03.03-.03.03-.03.03-.03.03-.03.03-.03.03-.03.03-.03.03-.03.03-.03.03-.03.02-.03.03-.03.02-.03.02-.04.02-.03.02-.04.02-.04.02-.04.02-.04.02-.04.02-.04.02-.04.02-.04.02-.04.02-.04.02-.04.02-.04.02-.04.02-.04.02-.04.02-.04.02-.04.02-.04.02-.04.02-.04v-.04s.03-.04.03-.04v-.04s.03-.04.03-.04v-.04s.03-.04.03-.04v-.04s.02-.04.02-.04v-.04s.02-.04.02-.04v-.04s.02-.04.02-.04v-.04s.02-.04.02-.04v-.04s.02-.04.02-.04v-.04s.01-.04.01-.04v-.04s.01-.04.01-.04v-.04s.01-.04.01-.04v-.04s.01-.04.01-.04v-.04s0-.04,0-.04v-.04s0-.04,0-.04v-.04s0-.04,0-.04v-.04s0-.04,0-.04v-.04s0-.04,0-.04v-.04ZM59.97,39.9l-.02-.23h0s0-.02,0-.02h0s0-.02,0-.02h0s0-.01,0-.01h0s0-.02,0-.02h0s0-.01,0-.01h0s0-.01,0-.01h0s0-.01,0-.01h0s0-.01,0-.01h0s0-.01,0-.01h0s0-.01,0-.01h0s0-.01,0-.01h0s0,0,0,0h0s0,0,0,0h0s0,0,0,0h0s0,0,0,0h0s0,0,0,0h0s0,0,0,0h0s0,0,0,0h0s0,0,0,0h0s0,0,0,0h-.03s0,0,0,0h0s0,0,0,0h0s0,0,0,0h0s0,0,0,0h0s0,0,0,0h0s0,0,0,0h0s0,0,0,0h0s0,0,0,0h0s0,.01,0,.01h0s0,.01,0,.01h0s0,.01,0,.01h0s0,.01,0,.01h0s0,.01,0,.01h0s0,.01,0,.01h0s0,.01,0,.01h0s0,.01,0,.01h0s0,.02,0,.02h0s0,.01,0,.01h0s0,.02,0,.02h0s-.02.24-.02.24h-.03s-.03,0-.03,0h-.03s-.03,0-.03,0h-.03s-.03,0-.03,0h-.03s-.03,0-.03,0h-.03s-.03,0-.03,0h-.03s-.03-.01-.03-.01h-.03s-.03-.01-.03-.01h-.03s-.03-.01-.03-.01h-.03s-.03-.01-.03-.01h-.03s-.03-.01-.03-.01h-.03s-.03-.02-.03-.02h-.03s-.03-.02-.03-.02h-.03s-.03-.02-.03-.02h-.03s-.03-.02-.03-.02h-.03s-.03-.02-.03-.02h-.03s-.03-.02-.03-.02h-.03s-.03-.02-.03-.02h-.03s-.03-.02-.03-.02h-.03s-.03-.02-.03-.02h-.03s-.03-.03-.03-.03h-.03s-.03-.03-.03-.03h-.03s-.03-.03-.03-.03h-.03s-.03-.03-.03-.03h-.03s-.02-.03-.02-.03h-.03s-.02-.03-.02-.03h-.03s-.02-.03-.02-.03l-.02-.02h-.02s-.02-.03-.02-.03l-.02-.02-.02-.02-.02-.02-.02-.02-.02-.02-.02-.02-.02-.02-.02-.02-.02-.02-.02-.02-.02-.02-.02-.02-.02-.02-.02-.02-.02-.02-.02-.02-.02-.02-.02-.02-.02-.02-.02-.02-.02-.02-.02-.02-.02-.02-.02-.02-.02-.02-.02-.02-.02-.02-.02-.02-.02-.02-.02-.02-.02-.02-.02-.02-.02-.02-.02-.02-.02-.02-.02-.02-.02-.02-.02-.02-.02-.02-.02-.02-.02-.02-.02-.02-.02-.02-.02-.03v-.02s-.03-.02-.03-.02v-.03s-.03-.02-.03-.02v-.03s-.03-.03-.03-.03v-.02s-.03-.03-.03-.03v-.03s-.03-.03-.03-.03v-.03s-.03-.03-.03-.03v-.03s-.03-.03-.03-.03v-.03s-.02-.03-.02-.03v-.03s-.02-.03-.02-.03v-.03s-.02-.03-.02-.03v-.03s-.02-.03-.02-.03v-.03s-.02-.03-.02-.03v-.03s-.02-.03-.02-.03v-.03s-.02-.03-.02-.03v-.03s-.02-.03-.02-.03v-.03s-.02-.03-.02-.03v-.03s-.01-.03-.01-.03v-.03s-.01-.03-.01-.03v-.03s-.01-.03-.01-.03v-.03s-.01-.03-.01-.03v-.03s-.01-.03-.01-.03v-.03s0-.03,0-.03v-.03s0-.03,0-.03v-.03s0-.03,0-.03v-.03s0-.03,0-.03v-.03s0-.03,0-.03l.22-.02h0s0,0,0,0h0s0,0,0,0h0s0,0,0,0h0s0,0,0,0h0s0,0,0,0h0s0-.01,0-.01h0s0-.01,0-.01h0s0-.01,0-.01h0s0-.01,0-.01h0s0-.01,0-.01h0s0-.01,0-.01h0s0-.01,0-.01h0s0-.01,0-.01h0s0-.01,0-.01h0s0-.02,0-.02h0s0-.02,0-.02h0s0-.02,0-.02h0s0-.02,0-.02h0s0-.02,0-.02h0s0-.02,0-.02h0v-.02h0s0-.02,0-.02h0s0-.02,0-.02h0s0-.02,0-.02h0s0-.02,0-.02h0s0-.02,0-.02h0s0-.02,0-.02h0s0-.01,0-.01h0s0-.02,0-.02h0s0-.01,0-.01h0s0-.01,0-.01h0s0-.01,0-.01h0s0-.01,0-.01h0s0-.01,0-.01h0s0-.01,0-.01h0s0-.01,0-.01h0s0,0,0,0h0s0,0,0,0h0s0,0,0,0h0s0,0,0,0h0s0,0,0,0h0s-.22-.02-.22-.02v-.03s0-.03,0-.03v-.03s0-.03,0-.03v-.03s0-.03,0-.03v-.03s0-.03,0-.03v-.03s0-.03,0-.03v-.03s.01-.03.01-.03v-.03s.01-.03.01-.03v-.03s.01-.03.01-.03v-.03s.01-.03.01-.03v-.03s.01-.03.01-.03v-.03s.02-.03.02-.03v-.03s.02-.03.02-.03v-.03s.02-.03.02-.03v-.03s.02-.03.02-.03v-.03s.02-.03.02-.03v-.03s.02-.03.02-.03v-.03s.02-.03.02-.03v-.03s.02-.03.02-.03v-.03s.02-.03.02-.03v-.03s.03-.03.03-.03v-.03s.03-.03.03-.03v-.03s.03-.03.03-.03v-.03s.03-.03.03-.03v-.02s.03-.03.03-.03v-.03s.03-.02.03-.02l.02-.02v-.03s.03-.02.03-.02l.02-.02.02-.02.02-.02.02-.02.02-.02.02-.02.02-.02.02-.02.02-.02.02-.02.02-.02.02-.02.02-.02.02-.02.02-.02.02-.02.02-.02.02-.02.02-.02.02-.02.02-.02.02-.02.02-.02.02-.02.02-.02.02-.02.02-.02.02-.02.02-.02.02-.02.02-.02.02-.02.02-.02.02-.02.02-.02.02-.02.02-.02.02-.02.02-.02.02-.02.02-.02.02-.02.02-.02.02-.02h.02s.02-.03.02-.03h.02s.03-.03.03-.03h.02s.03-.03.03-.03h.02s.03-.03.03-.03h.03s.03-.03.03-.03h.03s.03-.03.03-.03h.03s.03-.03.03-.03h.03s.03-.02.03-.02h.03s.03-.03.03-.03h.03s.03-.02.03-.02h.03s.03-.02.03-.02h.03s.03-.02.03-.02h.03s.03-.02.03-.02h.03s.03-.02.03-.02h.03s.03-.02.03-.02h.03s.03-.02.03-.02h.03s.03-.02.03-.02h.03s.03-.01.03-.01h.03s.03-.01.03-.01h.03s.03-.01.03-.01h.03s.03-.01.03-.01h.03s.03-.01.03-.01h.03s.03-.01.03-.01h.03s.03,0,.03,0h.03s.03,0,.03,0h.03s.03,0,.03,0h.03s.03,0,.03,0l.02.23h0s0,.02,0,.02h0s0,.02,0,.02h0s0,.01,0,.01h0s0,.02,0,.02h0s0,.01,0,.01h0s0,.01,0,.01h0s0,.01,0,.01h0s0,.01,0,.01h0s0,.01,0,.01h0s0,.01,0,.01h0s0,.01,0,.01h0s0,0,0,0h0s0,0,0,0h0s0,0,0,0h0s0,0,0,0h0s0,0,0,0h0s0,0,0,0h0s0,0,0,0h0s0,0,0,0h0s0,0,0,0h.03s0,0,0,0h0s0,0,0,0h0s0,0,0,0h0s0,0,0,0h0s0,0,0,0h0s0,0,0,0h0s0,0,0,0h0s0,0,0,0h0s0-.01,0-.01h0s0-.01,0-.01h0s0-.01,0-.01h0s0-.01,0-.01h0s0-.01,0-.01h0s0-.01,0-.01h0s0-.01,0-.01h0s0-.01,0-.01h0s0-.01,0-.01h0s0-.02,0-.02h0s0-.01,0-.01h0s.02-.24.02-.24h.03s.03,0,.03,0h.03s.03,0,.03,0h.03s.03,0,.03,0h.03s.03,0,.03,0h.03s.03.01.03.01h.03s.03.01.03.01h.03s.03.01.03.01h.03s.03.01.03.01h.03s.03.01.03.01h.03s.03.01.03.01h.03s.03.02.03.02h.03s.03.02.03.02h.03s.03.02.03.02h.03s.03.02.03.02h.03s.03.02.03.02h.03s.03.02.03.02h.03s.03.02.03.02h.03s.03.02.03.02h.03s.03.03.03.03h.03s.03.02.03.02h.03s.03.03.03.03h.03s.03.03.03.03h.03s.03.03.03.03h.02s.03.03.03.03h.03s.02.03.02.03h.02s.03.03.03.03l.02.02h.02s.02.03.02.03l.02.02.02.02.02.02.02.02.02.02.02.02.02.02.02.02.02.02.02.02.02.02.02.02.02.02.02.02.02.02.02.02.02.02.02.02.02.02.02.02.02.02.02.02.02.02.02.02.02.02.02.02.02.02.02.02.02.02.02.02.02.02.02.02.02.02.02.02.02.02.02.02.02.02.02.02.02.02.02.02.02.02.02.02v.02s.03.02.03.02v.03s.03.02.03.02l.02.02v.03s.03.03.03.03v.02s.03.03.03.03v.03s.03.03.03.03v.03s.03.03.03.03v.03s.03.03.03.03v.03s.02.03.02.03v.03s.02.03.02.03v.03s.02.03.02.03v.03s.02.03.02.03v.03s.02.03.02.03v.03s.02.03.02.03v.03s.02.03.02.03v.03s.02.03.02.03v.03s.02.03.02.03v.03s.02.03.02.03v.03s.01.03.01.03v.03s.01.03.01.03v.03s.01.03.01.03v.03s.01.03.01.03v.03s.01.03.01.03v.03s0,.03,0,.03v.03s0,.03,0,.03v.03s0,.03,0,.03v.03s0,.03,0,.03v.03s-.22.02-.22.02h0s0,0,0,0h0s0,0,0,0h0s0,0,0,0h0s0,0,0,0h0s0,.01,0,.01h0s0,.01,0,.01h0s0,.01,0,.01h0s0,.01,0,.01h0s0,.01,0,.01h0s0,.01,0,.01h0s0,.01,0,.01h0s0,.01,0,.01h0s0,.02,0,.02h0s0,.01,0,.01h0s0,.02,0,.02h0s0,.02,0,.02h0s0,.02,0,.02h0s0,.02,0,.02h0s0,.02,0,.02h0s0,.02,0,.02h0v.02h0s0,.02,0,.02h0s0,.02,0,.02h0s0,.02,0,.02h0s0,.02,0,.02h0s0,.02,0,.02h0s0,.01,0,.01h0s0,.02,0,.02h0s0,.01,0,.01h0s0,.01,0,.01h0s0,.02,0,.02h0s0,.01,0,.01h0s0,.01,0,.01h0s0,.01,0,.01h0s0,.01,0,.01h0s0,.01,0,.01h0s0,0,0,0h0s0,0,0,0h0s0,0,0,0h0s0,0,0,0h0s0,0,0,0h0s.22.02.22.02v.03s0,.03,0,.03v.03s0,.03,0,.03v.03s0,.03,0,.03v.03s0,.03,0,.03v.03s-.01.03-.01.03v.03s-.01.03-.01.03v.03s-.01.03-.01.03v.03s-.01.03-.01.03v.03s-.01.03-.01.03v.03s-.02.03-.02.03v.03s-.02.03-.02.03v.03s-.02.03-.02.03v.03s-.02.03-.02.03v.03s-.02.03-.02.03v.03s-.02.03-.02.03v.03s-.02.03-.02.03v.03s-.02.03-.02.03v.03s-.02.03-.02.03v.03s-.02.03-.02.03v.03s-.03.03-.03.03v.03s-.03.03-.03.03v.03s-.03.03-.03.03v.03s-.03.02-.03.02v.03s-.03.03-.03.03v.02s-.03.03-.03.03v.02s-.03.02-.03.02l-.02.03-.02.02-.02.02-.02.02-.02.02-.02.02-.02.02-.02.02-.02.02-.02.02-.02.02-.02.02-.02.02-.02.02-.02.02-.02.02-.02.02-.02.02-.02.02-.02.02-.02.02-.02.02-.02.02-.02.02-.02.02-.02.02-.02.02-.02.02-.02.02-.02.02-.02.02-.02.02-.02.02-.02.02-.02.02-.02.02-.02.02-.02.02-.02.02-.02.02-.02.02-.02.02-.02.02-.02.02-.02.02h-.02s-.02.03-.02.03h-.03s-.02.03-.02.03h-.02s-.03.03-.03.03h-.03s-.02.03-.02.03h-.03s-.03.03-.03.03h-.03s-.03.03-.03.03h-.03s-.03.03-.03.03h-.03s-.03.03-.03.03h-.03s-.03.02-.03.02h-.03s-.03.02-.03.02h-.03s-.03.02-.03.02h-.03s-.03.02-.03.02h-.03s-.03.02-.03.02h-.03s-.03.02-.03.02h-.03s-.03.02-.03.02h-.03s-.03.02-.03.02h-.03s-.03.02-.03.02h-.03s-.03.01-.03.01h-.03s-.03.01-.03.01h-.03s-.03.01-.03.01h-.03s-.03.01-.03.01h-.03s-.03.01-.03.01h-.03s-.03,0-.03,0h-.03s-.03,0-.03,0h-.03s-.03,0-.03,0h-.03s-.03,0-.03,0h-.03s-.03,0-.03,0Z"/><polygon class="cls-6" points="61.47 38.2 60.25 36.79 60.25 36.78 60.25 36.76 60.25 36.75 60.25 36.74 60.25 36.73 60.24 36.71 60.24 36.7 60.24 36.69 60.24 36.68 60.24 36.66 60.23 36.65 60.23 36.64 60.23 36.63 60.22 36.62 60.22 36.6 60.21 36.59 60.21 36.58 60.21 36.57 60.2 36.56 60.2 36.55 60.19 36.54 60.19 36.53 60.18 36.52 60.17 36.5 60.17 36.49 60.16 36.48 60.15 36.47 60.15 36.46 60.14 36.45 60.13 36.44 60.12 36.43 60.12 36.42 60.11 36.41 60.1 36.4 60.09 36.39 60.08 36.39 60.08 36.38 60.07 36.37 60.06 36.36 60.05 36.35 60.04 36.34 60.03 36.34 60.02 36.33 60.01 36.32 60 36.31 59.99 36.31 59.98 36.3 59.97 36.29 59.88 34.64 59.88 34.63 59.88 34.62 59.88 34.62 59.87 34.61 59.87 34.6 59.87 34.6 59.87 34.59 59.87 34.58 59.86 34.57 59.86 34.57 59.86 34.56 59.85 34.55 59.85 34.55 59.85 34.54 59.84 34.54 59.84 34.53 59.83 34.52 59.83 34.52 59.83 34.51 59.82 34.51 59.81 34.5 59.81 34.5 59.8 34.49 59.8 34.49 59.79 34.48 59.79 34.48 59.78 34.48 59.77 34.47 59.77 34.47 59.76 34.47 59.75 34.46 59.75 34.46 59.74 34.46 59.73 34.46 59.73 34.45 59.72 34.45 59.71 34.45 59.7 34.45 59.7 34.45 59.69 34.45 59.68 34.45 59.67 34.45 59.67 34.45 59.66 34.45 59.65 34.45 59.65 34.45 59.64 34.45 59.63 34.45 59.62 34.46 59.62 34.46 59.61 34.46 59.6 34.46 59.6 34.47 59.59 34.47 59.58 34.47 59.58 34.48 59.57 34.48 59.56 34.48 59.56 34.49 59.55 34.49 59.55 34.5 59.54 34.5 59.54 34.51 59.53 34.51 59.53 34.52 59.52 34.52 59.52 34.53 59.51 34.54 59.51 34.54 59.51 34.55 59.5 34.55 59.5 34.56 59.49 34.57 59.49 34.57 59.49 34.58 59.49 34.59 59.48 34.6 59.48 34.6 59.48 34.61 59.48 34.62 59.48 34.62 59.48 34.63 59.48 34.64 59.39 36.29 59.38 36.3 59.37 36.31 59.36 36.31 59.35 36.32 59.34 36.33 59.33 36.34 59.32 36.34 59.31 36.35 59.3 36.36 59.29 36.37 59.28 36.38 59.27 36.38 59.27 36.39 59.26 36.4 59.25 36.41 59.24 36.42 59.23 36.43 59.23 36.44 59.22 36.45 59.21 36.46 59.2 36.47 59.2 36.48 59.19 36.49 59.18 36.5 59.18 36.51 59.17 36.52 59.17 36.53 59.16 36.55 59.16 36.56 59.15 36.57 59.15 36.58 59.14 36.59 59.14 36.6 59.13 36.61 59.13 36.62 59.13 36.64 59.12 36.65 59.12 36.66 59.12 36.67 59.12 36.68 59.11 36.7 59.11 36.71 59.11 36.72 59.11 36.73 59.11 36.74 59.11 36.76 59.11 36.77 59.11 36.78 59.11 36.79 59.11 36.81 59.11 36.82 59.11 36.83 59.11 36.84 59.11 36.85 59.11 36.87 59.11 36.88 59.12 36.89 59.12 36.9 59.12 36.91 59.12 36.93 59.13 36.94 59.13 36.95 59.13 36.96 59.14 36.97 59.14 36.99 59.15 37 59.15 37.01 59.16 37.02 59.16 37.03 59.17 37.04 59.17 37.05 59.18 37.06 59.18 37.07 59.19 37.08 59.2 37.09 59.2 37.11 59.21 37.12 59.22 37.13 59.23 37.14 59.23 37.15 59.24 37.15 59.25 37.16 59.26 37.17 59.26 37.18 59.27 37.19 59.28 37.2 59.29 37.21 59.3 37.22 59.31 37.22 59.32 37.23 59.33 37.24 59.34 37.25 59.35 37.25 59.36 37.26 59.37 37.27 59.38 37.27 59.39 37.28 59.4 37.29 59.41 37.29 59.42 37.3 59.43 37.3 59.44 37.31 59.45 37.31 59.46 37.32 59.48 37.32 59.49 37.33 59.5 37.33 59.51 37.33 59.52 37.34 59.53 37.34 59.55 37.34 59.56 37.35 59.57 37.35 59.58 37.35 59.6 37.35 59.61 37.35 59.62 37.36 59.63 37.36 59.64 37.36 59.66 37.36 59.67 37.36 59.68 37.36 59.69 37.36 59.7 37.36 59.72 37.36 61.1 38.59 61.11 38.59 61.12 38.59 61.13 38.6 61.14 38.6 61.15 38.6 61.15 38.6 61.16 38.6 61.17 38.6 61.18 38.6 61.19 38.6 61.2 38.6 61.21 38.6 61.22 38.6 61.23 38.6 61.23 38.6 61.24 38.6 61.25 38.6 61.26 38.6 61.27 38.59 61.28 38.59 61.29 38.59 61.29 38.59 61.3 38.58 61.31 38.58 61.32 38.58 61.33 38.57 61.33 38.57 61.34 38.56 61.35 38.56 61.36 38.55 61.36 38.55 61.37 38.54 61.38 38.54 61.39 38.53 61.39 38.53 61.4 38.52 61.41 38.52 61.41 38.51 61.42 38.5 61.42 38.5 61.43 38.49 61.43 38.48 61.44 38.48 61.44 38.47 61.45 38.46 61.45 38.45 61.46 38.44 61.46 38.44 61.47 38.43 61.47 38.42 61.47 38.41 61.47 38.4 61.48 38.4 61.48 38.39 61.48 38.38 61.48 38.37 61.49 38.36 61.49 38.35 61.49 38.34 61.49 38.34 61.49 38.33 61.49 38.32 61.49 38.31 61.49 38.3 61.49 38.29 61.49 38.28 61.49 38.27 61.49 38.26 61.49 38.26 61.48 38.25 61.48 38.24 61.48 38.23 61.48 38.22 61.48 38.21 61.47 38.2 61.47 38.2"/><polygon class="cls-6" points="29.93 33.99 29.91 34.01 29.88 34.02 29.85 34.03 29.83 34.04 29.8 34.06 29.78 34.07 29.75 34.08 29.73 34.1 29.71 34.11 29.68 34.12 29.66 34.14 29.63 34.15 29.61 34.17 29.58 34.18 29.56 34.2 29.54 34.22 29.52 34.23 29.49 34.25 29.47 34.26 29.45 34.28 29.42 34.3 29.4 34.32 29.38 34.33 29.36 34.35 29.34 34.37 29.32 34.39 29.29 34.41 29.27 34.43 29.25 34.45 29.23 34.46 29.21 34.48 29.19 34.5 29.17 34.52 29.15 34.54 29.13 34.57 29.11 34.59 29.09 34.61 29.08 34.63 29.06 34.65 29.04 34.67 29.02 34.69 29 34.72 28.98 34.74 28.97 34.76 28.95 34.78 28.94 34.81 28.92 34.83 28.9 34.85 28.89 34.88 28.87 34.9 28.86 34.92 28.84 34.95 28.83 34.97 28.81 35 28.8 35.02 28.78 35.05 28.77 35.07 28.76 35.09 28.74 35.12 28.73 35.15 28.72 35.17 28.71 35.2 28.69 35.22 28.68 35.25 28.67 35.27 28.66 35.3 28.65 35.33 28.64 35.35 28.63 35.38 28.62 35.41 28.61 35.43 28.6 35.46 28.59 35.48 28.58 35.51 28.57 35.54 28.57 35.57 28.56 35.59 28.55 35.62 28.55 35.65 28.54 35.68 28.53 35.7 28.53 35.73 28.52 35.76 28.51 35.79 28.51 35.81 28.51 35.84 28.5 35.87 28.5 35.9 28.49 35.93 28.49 35.95 28.49 35.98 28.48 36.01 28.48 36.04 28.48 36.07 28.48 36.1 28.47 36.12 28.47 36.15 28.47 36.18 28.47 36.21 28.47 36.24 28.47 36.26 28.47 36.29 28.47 36.32 28.47 36.35 28.48 36.38 28.48 36.41 28.48 36.43 28.48 36.46 28.49 36.49 28.49 36.52 28.49 36.55 28.49 36.57 28.5 36.6 28.5 36.63 28.51 36.66 28.51 36.69 28.52 36.71 28.52 36.74 28.53 36.77 28.54 36.8 28.54 36.81 28.54 36.81 28.54 36.82 28.55 36.83 28.55 36.84 28.55 36.85 28.56 36.86 28.56 36.87 28.57 36.87 28.57 36.88 28.58 36.89 28.58 36.9 28.59 36.91 28.59 36.91 28.6 36.92 28.61 36.93 28.61 36.93 28.62 36.94 28.63 36.95 28.64 36.95 28.64 36.96 28.65 36.96 28.66 36.97 28.67 36.97 28.68 36.98 28.68 36.98 28.69 36.98 28.7 36.99 28.71 36.99 28.72 36.99 28.73 37 28.74 37 28.75 37 28.76 37 28.77 37 28.77 37.01 28.78 37.01 28.79 37.01 28.8 37.01 28.81 37.01 28.82 37.01 28.83 37 28.84 37 28.85 37 28.86 37 28.87 37 28.88 36.99 28.88 36.99 28.89 36.99 28.9 36.98 28.91 36.98 28.92 36.98 28.93 36.97 28.94 36.97 28.94 36.96 28.95 36.96 28.96 36.95 28.97 36.95 28.97 36.94 28.98 36.93 28.99 36.93 28.99 36.92 29 36.91 29.01 36.91 29.01 36.9 29.02 36.89 29.02 36.88 29.03 36.87 29.03 36.87 29.04 36.86 29.04 36.85 29.04 36.84 29.05 36.83 29.05 36.82 29.05 36.81 29.06 36.81 29.06 36.8 29.06 36.79 29.06 36.78 29.06 36.77 29.06 36.76 29.06 36.75 29.07 36.74 29.07 36.73 29.06 36.72 29.06 36.71 29.06 36.7 29.06 36.69 29.06 36.69 29.06 36.68 29.05 36.65 29.05 36.63 29.04 36.6 29.04 36.58 29.04 36.55 29.03 36.53 29.03 36.5 29.02 36.48 29.02 36.45 29.02 36.43 29.02 36.4 29.01 36.38 29.01 36.35 29.01 36.33 29.01 36.3 29.01 36.28 29.01 36.26 29.01 36.23 29.01 36.2 29.01 36.18 29.01 36.15 29.01 36.13 29.01 36.1 29.02 36.08 29.02 36.05 29.02 36.03 29.02 36 29.03 35.98 29.03 35.96 29.04 35.93 29.04 35.91 29.04 35.88 29.05 35.86 29.05 35.83 29.06 35.81 29.06 35.78 29.07 35.76 29.08 35.74 29.08 35.71 29.09 35.69 29.1 35.66 29.11 35.64 29.12 35.62 29.12 35.59 29.13 35.57 29.14 35.54 29.15 35.52 29.16 35.5 29.17 35.48 29.18 35.45 29.19 35.43 29.2 35.41 29.21 35.38 29.22 35.36 29.23 35.34 29.25 35.32 29.26 35.3 29.27 35.27 29.28 35.25 29.3 35.23 29.31 35.21 29.32 35.19 29.34 35.17 29.35 35.15 29.37 35.13 29.38 35.11 29.4 35.09 29.41 35.07 29.43 35.05 29.44 35.03 29.46 35.01 29.47 34.99 29.49 34.97 29.51 34.95 29.52 34.93 29.54 34.91 29.56 34.9 29.57 34.88 29.59 34.86 29.61 34.85 29.63 34.83 29.65 34.81 29.67 34.79 29.69 34.78 29.71 34.76 29.72 34.75 29.74 34.73 29.76 34.71 29.78 34.7 29.8 34.69 29.82 34.67 29.85 34.66 29.87 34.64 29.89 34.63 29.91 34.62 29.93 34.6 29.95 34.59 29.97 34.58 29.99 34.56 30.02 34.55 30.04 34.54 30.06 34.53 30.08 34.52 30.11 34.51 30.13 34.5 30.15 34.49 30.16 34.48 30.17 34.48 30.17 34.47 30.18 34.47 30.19 34.46 30.2 34.46 30.21 34.45 30.21 34.45 30.22 34.44 30.23 34.43 30.23 34.43 30.24 34.42 30.25 34.41 30.25 34.41 30.26 34.4 30.26 34.39 30.27 34.38 30.27 34.38 30.28 34.37 30.28 34.36 30.29 34.35 30.29 34.34 30.29 34.33 30.3 34.32 30.3 34.31 30.3 34.3 30.3 34.3 30.31 34.29 30.31 34.28 30.31 34.27 30.31 34.26 30.31 34.25 30.31 34.24 30.31 34.23 30.31 34.22 30.31 34.21 30.31 34.2 30.31 34.19 30.3 34.18 30.3 34.18 30.3 34.17 30.3 34.16 30.29 34.15 30.29 34.14 30.29 34.13 30.28 34.12 30.28 34.11 30.27 34.11 30.27 34.1 30.26 34.09 30.26 34.08 30.25 34.07 30.25 34.07 30.24 34.06 30.23 34.05 30.23 34.05 30.22 34.04 30.21 34.03 30.21 34.03 30.2 34.02 30.19 34.02 30.18 34.01 30.18 34.01 30.17 34 30.16 34 30.15 33.99 30.14 33.99 30.13 33.99 30.12 33.98 30.11 33.98 30.11 33.98 30.1 33.98 30.09 33.98 30.08 33.97 30.07 33.97 30.06 33.97 30.05 33.97 30.04 33.97 30.03 33.97 30.02 33.97 30.01 33.97 30 33.97 29.99 33.98 29.99 33.98 29.98 33.98 29.97 33.98 29.96 33.98 29.95 33.99 29.94 33.99 29.93 33.99"/><polygon class="cls-6" points="27.48 37.14 27.48 37.15 27.49 37.16 27.49 37.16 27.49 37.17 27.5 37.18 27.5 37.19 27.5 37.2 27.51 37.21 27.51 37.21 27.52 37.22 27.52 37.23 27.53 37.24 27.54 37.25 27.54 37.25 27.55 37.26 27.56 37.26 27.56 37.27 27.57 37.28 27.58 37.28 27.58 37.29 27.59 37.29 27.6 37.3 27.61 37.3 27.62 37.31 27.62 37.31 27.63 37.32 27.64 37.32 27.65 37.32 27.66 37.33 27.67 37.33 27.68 37.33 27.69 37.33 27.7 37.34 27.71 37.34 27.72 37.34 27.72 37.34 27.73 37.34 27.74 37.34 27.75 37.34 27.76 37.34 27.77 37.34 27.78 37.34 27.79 37.33 27.8 37.33 27.81 37.33 27.82 37.33 27.83 37.32 27.84 37.32 27.84 37.32 27.85 37.32 27.86 37.31 27.87 37.31 27.88 37.3 27.88 37.3 27.89 37.29 27.9 37.29 27.91 37.28 27.91 37.27 27.92 37.27 27.93 37.26 27.94 37.26 27.94 37.25 27.95 37.24 27.95 37.23 27.96 37.23 27.96 37.22 27.97 37.21 27.98 37.2 27.98 37.19 27.98 37.19 27.99 37.18 27.99 37.17 27.99 37.16 28 37.15 28 37.14 28 37.13 28 37.12 28.01 37.11 28.01 37.1 28.01 37.1 28.01 37.09 28.01 37.08 28.01 37.07 28.01 37.06 28.01 37.05 28.01 37.04 28.01 37.03 28 37.02 28 37.01 28 37 27.99 36.97 27.99 36.94 27.98 36.91 27.97 36.88 27.97 36.85 27.96 36.82 27.95 36.79 27.95 36.76 27.94 36.73 27.94 36.7 27.93 36.67 27.93 36.63 27.93 36.6 27.92 36.57 27.92 36.54 27.91 36.51 27.91 36.48 27.91 36.45 27.91 36.42 27.91 36.39 27.91 36.35 27.9 36.32 27.9 36.29 27.9 36.26 27.9 36.23 27.9 36.2 27.9 36.17 27.91 36.14 27.91 36.1 27.91 36.07 27.91 36.04 27.91 36.01 27.91 35.98 27.92 35.95 27.92 35.92 27.92 35.89 27.93 35.86 27.93 35.82 27.94 35.79 27.94 35.76 27.95 35.73 27.95 35.7 27.96 35.67 27.96 35.64 27.97 35.61 27.98 35.58 27.98 35.55 27.99 35.52 28 35.49 28.01 35.46 28.02 35.43 28.02 35.4 28.03 35.37 28.04 35.34 28.05 35.31 28.06 35.28 28.07 35.25 28.08 35.22 28.09 35.19 28.1 35.16 28.11 35.13 28.13 35.1 28.14 35.07 28.15 35.05 28.16 35.02 28.18 34.99 28.19 34.96 28.2 34.93 28.22 34.9 28.23 34.87 28.24 34.85 28.26 34.82 28.27 34.79 28.29 34.77 28.3 34.74 28.32 34.71 28.33 34.68 28.35 34.66 28.37 34.63 28.39 34.6 28.4 34.58 28.42 34.55 28.44 34.53 28.45 34.5 28.47 34.47 28.49 34.45 28.51 34.42 28.53 34.4 28.55 34.38 28.57 34.35 28.59 34.33 28.61 34.3 28.63 34.28 28.65 34.26 28.67 34.23 28.69 34.21 28.71 34.18 28.73 34.16 28.75 34.14 28.77 34.12 28.8 34.1 28.82 34.07 28.84 34.05 28.86 34.03 28.89 34.01 28.91 33.99 28.93 33.97 28.96 33.95 28.98 33.93 29 33.91 29.03 33.89 29.05 33.87 29.08 33.85 29.1 33.83 29.13 33.81 29.15 33.79 29.18 33.77 29.2 33.76 29.23 33.74 29.26 33.72 29.28 33.7 29.31 33.68 29.33 33.67 29.36 33.65 29.39 33.64 29.41 33.62 29.44 33.61 29.47 33.59 29.5 33.58 29.52 33.56 29.55 33.55 29.58 33.53 29.61 33.52 29.64 33.51 29.66 33.49 29.69 33.48 29.72 33.47 29.73 33.46 29.74 33.46 29.75 33.45 29.75 33.45 29.76 33.44 29.77 33.44 29.78 33.43 29.78 33.43 29.79 33.42 29.8 33.41 29.8 33.41 29.81 33.4 29.82 33.39 29.82 33.39 29.83 33.38 29.83 33.37 29.84 33.36 29.84 33.36 29.85 33.35 29.85 33.34 29.86 33.33 29.86 33.32 29.86 33.31 29.87 33.31 29.87 33.3 29.87 33.29 29.87 33.28 29.88 33.27 29.88 33.26 29.88 33.25 29.88 33.24 29.88 33.23 29.88 33.22 29.88 33.21 29.88 33.2 29.88 33.19 29.88 33.18 29.88 33.17 29.88 33.17 29.87 33.16 29.87 33.15 29.87 33.14 29.87 33.13 29.86 33.12 29.86 33.11 29.85 33.1 29.85 33.09 29.85 33.09 29.84 33.08 29.84 33.07 29.83 33.06 29.83 33.05 29.82 33.05 29.81 33.04 29.81 33.03 29.8 33.03 29.79 33.02 29.79 33.01 29.78 33.01 29.77 33 29.76 33 29.76 32.99 29.75 32.99 29.74 32.98 29.73 32.98 29.72 32.97 29.72 32.97 29.71 32.97 29.7 32.96 29.69 32.96 29.68 32.96 29.67 32.96 29.66 32.95 29.65 32.95 29.64 32.95 29.63 32.95 29.62 32.95 29.61 32.95 29.61 32.95 29.6 32.95 29.59 32.95 29.58 32.95 29.57 32.95 29.56 32.96 29.55 32.96 29.54 32.96 29.53 32.96 29.52 32.97 29.51 32.97 29.51 32.97 29.47 32.99 29.44 33 29.41 33.01 29.38 33.03 29.35 33.05 29.32 33.06 29.29 33.08 29.26 33.09 29.23 33.11 29.2 33.12 29.17 33.14 29.14 33.16 29.11 33.17 29.08 33.19 29.05 33.21 29.02 33.23 29 33.25 28.97 33.27 28.94 33.28 28.91 33.3 28.88 33.32 28.86 33.34 28.83 33.36 28.8 33.38 28.77 33.4 28.75 33.42 28.72 33.45 28.69 33.47 28.67 33.49 28.64 33.51 28.61 33.53 28.59 33.55 28.56 33.58 28.54 33.6 28.51 33.62 28.49 33.65 28.46 33.67 28.44 33.69 28.41 33.72 28.39 33.74 28.37 33.76 28.34 33.79 28.32 33.81 28.3 33.84 28.27 33.86 28.25 33.89 28.23 33.92 28.21 33.94 28.19 33.97 28.16 33.99 28.14 34.02 28.12 34.05 28.1 34.07 28.08 34.1 28.06 34.13 28.04 34.16 28.02 34.18 28 34.21 27.98 34.24 27.96 34.27 27.94 34.3 27.93 34.33 27.91 34.36 27.89 34.38 27.87 34.41 27.85 34.44 27.84 34.47 27.82 34.5 27.8 34.53 27.79 34.56 27.77 34.59 27.76 34.62 27.74 34.65 27.73 34.68 27.71 34.71 27.7 34.74 27.68 34.77 27.67 34.81 27.66 34.84 27.64 34.87 27.63 34.9 27.62 34.93 27.6 34.96 27.59 34.99 27.58 35.03 27.57 35.06 27.56 35.09 27.55 35.12 27.54 35.16 27.53 35.19 27.52 35.22 27.51 35.25 27.5 35.29 27.49 35.32 27.48 35.35 27.47 35.39 27.46 35.42 27.46 35.45 27.45 35.48 27.44 35.52 27.43 35.55 27.43 35.58 27.42 35.62 27.42 35.65 27.41 35.68 27.4 35.72 27.4 35.75 27.4 35.79 27.39 35.82 27.39 35.85 27.38 35.89 27.38 35.92 27.38 35.96 27.38 35.99 27.37 36.02 27.37 36.06 27.37 36.09 27.37 36.13 27.37 36.16 27.37 36.19 27.37 36.23 27.37 36.26 27.37 36.3 27.37 36.33 27.37 36.36 27.37 36.4 27.37 36.43 27.37 36.47 27.38 36.5 27.38 36.53 27.38 36.57 27.38 36.6 27.39 36.64 27.39 36.67 27.4 36.7 27.4 36.74 27.41 36.77 27.41 36.81 27.42 36.84 27.42 36.87 27.43 36.91 27.44 36.94 27.44 36.97 27.45 37.01 27.46 37.04 27.46 37.07 27.47 37.1 27.48 37.14"/><polygon class="cls-6" points="32.8 34.49 32.82 34.5 32.84 34.51 32.86 34.52 32.88 34.53 32.91 34.54 32.93 34.55 32.95 34.56 32.97 34.58 33 34.59 33.02 34.6 33.04 34.62 33.06 34.63 33.08 34.64 33.1 34.66 33.12 34.67 33.14 34.69 33.16 34.7 33.18 34.71 33.2 34.73 33.22 34.75 33.24 34.76 33.26 34.78 33.28 34.79 33.3 34.81 33.31 34.83 33.33 34.85 33.35 34.86 33.37 34.88 33.39 34.9 33.4 34.91 33.42 34.93 33.44 34.95 33.45 34.97 33.47 34.99 33.49 35.01 33.5 35.03 33.52 35.05 33.53 35.07 33.55 35.09 33.56 35.11 33.58 35.13 33.59 35.15 33.61 35.17 33.62 35.19 33.63 35.21 33.65 35.23 33.66 35.25 33.67 35.27 33.69 35.3 33.7 35.32 33.71 35.34 33.72 35.36 33.73 35.38 33.75 35.41 33.75 35.43 33.77 35.45 33.78 35.48 33.79 35.5 33.79 35.52 33.8 35.54 33.81 35.57 33.82 35.59 33.83 35.62 33.84 35.64 33.85 35.66 33.85 35.69 33.86 35.71 33.87 35.74 33.87 35.76 33.88 35.78 33.88 35.81 33.89 35.83 33.9 35.86 33.9 35.88 33.9 35.91 33.91 35.93 33.91 35.96 33.92 35.98 33.92 36 33.92 36.03 33.93 36.05 33.93 36.08 33.93 36.1 33.93 36.13 33.93 36.15 33.93 36.18 33.93 36.2 33.94 36.23 33.94 36.25 33.93 36.28 33.93 36.3 33.93 36.33 33.93 36.35 33.93 36.38 33.93 36.4 33.93 36.43 33.92 36.45 33.92 36.48 33.92 36.5 33.91 36.53 33.91 36.55 33.9 36.58 33.9 36.6 33.9 36.63 33.89 36.65 33.88 36.68 33.88 36.69 33.88 36.69 33.88 36.7 33.88 36.71 33.88 36.72 33.88 36.73 33.88 36.74 33.88 36.75 33.88 36.76 33.88 36.77 33.88 36.78 33.88 36.79 33.88 36.8 33.89 36.81 33.89 36.81 33.89 36.82 33.9 36.83 33.9 36.84 33.9 36.85 33.91 36.86 33.91 36.87 33.92 36.87 33.92 36.88 33.93 36.89 33.93 36.9 33.94 36.91 33.94 36.91 33.95 36.92 33.96 36.93 33.97 36.93 33.97 36.94 33.98 36.95 33.99 36.95 33.99 36.96 34 36.96 34.01 36.97 34.02 36.97 34.02 36.98 34.03 36.98 34.04 36.98 34.05 36.99 34.06 36.99 34.07 36.99 34.08 37 34.09 37 34.1 37 34.1 37 34.12 37 34.12 37.01 34.13 37.01 34.14 37.01 34.15 37.01 34.16 37.01 34.17 37.01 34.18 37 34.19 37 34.2 37 34.21 37 34.22 37 34.23 36.99 34.24 36.99 34.24 36.99 34.25 36.98 34.26 36.98 34.27 36.98 34.28 36.97 34.29 36.97 34.29 36.96 34.3 36.96 34.31 36.95 34.32 36.95 34.32 36.94 34.33 36.93 34.34 36.93 34.34 36.92 34.35 36.91 34.36 36.91 34.36 36.9 34.37 36.89 34.37 36.88 34.38 36.87 34.38 36.87 34.39 36.86 34.39 36.85 34.4 36.84 34.4 36.83 34.4 36.82 34.4 36.81 34.41 36.81 34.41 36.8 34.42 36.77 34.42 36.74 34.43 36.71 34.43 36.69 34.44 36.66 34.44 36.63 34.45 36.6 34.45 36.57 34.45 36.55 34.46 36.52 34.46 36.49 34.46 36.46 34.46 36.43 34.47 36.41 34.47 36.38 34.47 36.35 34.47 36.32 34.47 36.29 34.47 36.26 34.47 36.24 34.47 36.21 34.47 36.18 34.47 36.15 34.47 36.12 34.47 36.1 34.47 36.07 34.46 36.04 34.46 36.01 34.46 35.98 34.46 35.95 34.45 35.93 34.45 35.9 34.44 35.87 34.44 35.84 34.44 35.81 34.43 35.79 34.42 35.76 34.42 35.73 34.41 35.7 34.41 35.68 34.4 35.65 34.39 35.62 34.38 35.59 34.38 35.57 34.37 35.54 34.36 35.51 34.35 35.48 34.34 35.46 34.34 35.43 34.33 35.41 34.32 35.38 34.31 35.35 34.3 35.33 34.28 35.3 34.27 35.27 34.26 35.25 34.25 35.22 34.24 35.2 34.23 35.17 34.21 35.15 34.2 35.12 34.19 35.09 34.18 35.07 34.16 35.05 34.15 35.02 34.13 35 34.12 34.97 34.1 34.95 34.09 34.92 34.07 34.9 34.06 34.88 34.04 34.85 34.03 34.83 34.01 34.81 33.99 34.78 33.98 34.76 33.96 34.74 33.94 34.72 33.92 34.69 33.91 34.67 33.89 34.65 33.87 34.63 33.85 34.61 33.83 34.59 33.81 34.57 33.79 34.54 33.77 34.52 33.75 34.5 33.73 34.48 33.71 34.46 33.69 34.45 33.67 34.43 33.65 34.41 33.63 34.39 33.61 34.37 33.59 34.35 33.57 34.33 33.54 34.32 33.52 34.3 33.5 34.28 33.48 34.26 33.45 34.25 33.43 34.23 33.41 34.22 33.38 34.2 33.36 34.18 33.34 34.17 33.31 34.15 33.29 34.14 33.26 34.12 33.24 34.11 33.21 34.1 33.19 34.08 33.17 34.07 33.14 34.06 33.11 34.04 33.09 34.03 33.06 34.02 33.04 34.01 33.01 33.99 33 33.99 33 33.99 32.99 33.98 32.98 33.98 32.97 33.98 32.96 33.98 32.95 33.98 32.94 33.97 32.93 33.97 32.92 33.97 32.91 33.97 32.9 33.97 32.9 33.97 32.88 33.97 32.88 33.97 32.87 33.97 32.86 33.98 32.85 33.98 32.84 33.98 32.83 33.98 32.82 33.98 32.81 33.99 32.8 33.99 32.8 33.99 32.79 34 32.78 34 32.77 34.01 32.76 34.01 32.75 34.02 32.75 34.02 32.74 34.03 32.73 34.03 32.72 34.04 32.72 34.05 32.71 34.05 32.7 34.06 32.7 34.07 32.69 34.07 32.69 34.08 32.68 34.09 32.68 34.1 32.67 34.11 32.67 34.11 32.66 34.12 32.66 34.13 32.66 34.14 32.65 34.15 32.65 34.16 32.65 34.17 32.64 34.18 32.64 34.18 32.64 34.19 32.64 34.2 32.64 34.21 32.64 34.22 32.64 34.23 32.64 34.24 32.64 34.25 32.64 34.26 32.64 34.27 32.64 34.28 32.64 34.29 32.64 34.3 32.64 34.3 32.65 34.31 32.65 34.32 32.65 34.33 32.66 34.34 32.66 34.35 32.66 34.36 32.67 34.37 32.67 34.38 32.68 34.38 32.68 34.39 32.69 34.4 32.69 34.41 32.7 34.41 32.7 34.42 32.71 34.43 32.72 34.43 32.72 34.44 32.73 34.45 32.74 34.45 32.75 34.46 32.75 34.46 32.76 34.47 32.77 34.47 32.78 34.48 32.79 34.48 32.8 34.49"/><polygon class="cls-6" points="35.47 37.14 35.46 37.15 35.46 37.16 35.46 37.16 35.45 37.17 35.45 37.18 35.45 37.19 35.44 37.2 35.44 37.21 35.43 37.21 35.43 37.22 35.42 37.23 35.41 37.24 35.41 37.25 35.4 37.25 35.4 37.26 35.39 37.26 35.38 37.27 35.37 37.28 35.37 37.28 35.36 37.29 35.35 37.29 35.35 37.3 35.34 37.3 35.33 37.31 35.32 37.31 35.31 37.32 35.3 37.32 35.29 37.32 35.29 37.33 35.28 37.33 35.27 37.33 35.26 37.33 35.25 37.34 35.24 37.34 35.23 37.34 35.22 37.34 35.21 37.34 35.2 37.34 35.19 37.34 35.18 37.34 35.17 37.34 35.16 37.34 35.15 37.33 35.15 37.33 35.14 37.33 35.13 37.33 35.12 37.32 35.11 37.32 35.1 37.32 35.09 37.32 35.08 37.31 35.08 37.31 35.07 37.3 35.06 37.3 35.05 37.29 35.04 37.29 35.04 37.28 35.03 37.27 35.02 37.27 35.02 37.26 35.01 37.26 35 37.25 35 37.24 34.99 37.23 34.99 37.23 34.98 37.22 34.97 37.21 34.97 37.2 34.97 37.19 34.96 37.19 34.96 37.18 34.95 37.17 34.95 37.16 34.95 37.15 34.95 37.14 34.94 37.13 34.94 37.12 34.94 37.11 34.94 37.1 34.94 37.1 34.94 37.09 34.94 37.08 34.93 37.07 34.94 37.06 34.94 37.05 34.94 37.04 34.94 37.03 34.94 37.02 34.94 37.01 34.94 37 34.95 36.97 34.96 36.94 34.97 36.91 34.97 36.88 34.98 36.85 34.99 36.82 34.99 36.79 35 36.76 35 36.73 35.01 36.7 35.01 36.67 35.01 36.63 35.02 36.6 35.02 36.57 35.03 36.54 35.03 36.51 35.03 36.48 35.03 36.45 35.04 36.42 35.04 36.39 35.04 36.35 35.04 36.32 35.04 36.29 35.04 36.26 35.04 36.23 35.04 36.2 35.04 36.17 35.04 36.14 35.04 36.1 35.04 36.07 35.03 36.04 35.03 36.01 35.03 35.98 35.03 35.95 35.02 35.92 35.02 35.89 35.02 35.86 35.01 35.82 35.01 35.79 35 35.76 35 35.73 34.99 35.7 34.99 35.67 34.98 35.64 34.97 35.61 34.97 35.58 34.96 35.55 34.95 35.52 34.95 35.49 34.94 35.46 34.93 35.43 34.92 35.4 34.91 35.37 34.9 35.34 34.89 35.31 34.88 35.28 34.87 35.25 34.86 35.22 34.85 35.19 34.84 35.16 34.83 35.13 34.82 35.1 34.81 35.07 34.79 35.05 34.78 35.02 34.77 34.99 34.76 34.96 34.74 34.93 34.73 34.9 34.72 34.87 34.7 34.85 34.69 34.82 34.67 34.79 34.66 34.77 34.64 34.74 34.63 34.71 34.61 34.68 34.59 34.66 34.58 34.63 34.56 34.6 34.54 34.58 34.53 34.55 34.51 34.53 34.49 34.5 34.47 34.47 34.45 34.45 34.44 34.42 34.42 34.4 34.4 34.38 34.38 34.35 34.36 34.33 34.34 34.3 34.32 34.28 34.3 34.26 34.28 34.23 34.26 34.21 34.24 34.18 34.21 34.16 34.19 34.14 34.17 34.12 34.15 34.1 34.13 34.07 34.1 34.05 34.08 34.03 34.06 34.01 34.04 33.99 34.01 33.97 33.99 33.95 33.97 33.93 33.94 33.91 33.92 33.89 33.89 33.87 33.87 33.85 33.84 33.83 33.82 33.81 33.79 33.79 33.77 33.77 33.74 33.76 33.72 33.74 33.69 33.72 33.66 33.7 33.64 33.68 33.61 33.67 33.59 33.65 33.56 33.64 33.53 33.62 33.5 33.61 33.48 33.59 33.45 33.58 33.42 33.56 33.39 33.55 33.37 33.53 33.34 33.52 33.31 33.51 33.28 33.49 33.25 33.48 33.22 33.47 33.22 33.46 33.21 33.46 33.2 33.45 33.19 33.45 33.18 33.44 33.18 33.44 33.17 33.43 33.16 33.43 33.15 33.42 33.15 33.41 33.14 33.41 33.13 33.4 33.13 33.39 33.12 33.39 33.12 33.38 33.11 33.37 33.11 33.36 33.1 33.36 33.09 33.35 33.09 33.34 33.09 33.33 33.08 33.32 33.08 33.31 33.08 33.31 33.07 33.3 33.07 33.29 33.07 33.28 33.07 33.27 33.07 33.26 33.07 33.25 33.06 33.24 33.06 33.23 33.06 33.22 33.06 33.21 33.06 33.2 33.06 33.19 33.07 33.18 33.07 33.17 33.07 33.17 33.07 33.16 33.07 33.15 33.08 33.14 33.08 33.13 33.08 33.12 33.09 33.11 33.09 33.1 33.09 33.09 33.1 33.09 33.1 33.08 33.11 33.07 33.11 33.06 33.12 33.05 33.13 33.05 33.13 33.04 33.14 33.03 33.14 33.03 33.15 33.02 33.16 33.01 33.17 33.01 33.17 33 33.18 33 33.19 32.99 33.2 32.99 33.2 32.98 33.21 32.98 33.22 32.97 33.23 32.97 33.24 32.97 33.25 32.96 33.26 32.96 33.27 32.96 33.27 32.96 33.28 32.95 33.29 32.95 33.3 32.95 33.31 32.95 33.32 32.95 33.33 32.95 33.34 32.95 33.35 32.95 33.36 32.95 33.37 32.95 33.38 32.95 33.39 32.96 33.39 32.96 33.4 32.96 33.41 32.96 33.42 32.97 33.43 32.97 33.44 32.97 33.47 32.99 33.5 33 33.53 33.01 33.56 33.03 33.59 33.05 33.62 33.06 33.65 33.08 33.69 33.09 33.71 33.11 33.75 33.12 33.77 33.14 33.8 33.16 33.83 33.17 33.86 33.19 33.89 33.21 33.92 33.23 33.95 33.25 33.98 33.27 34 33.28 34.03 33.3 34.06 33.32 34.09 33.34 34.12 33.36 34.14 33.38 34.17 33.4 34.2 33.42 34.22 33.45 34.25 33.47 34.28 33.49 34.3 33.51 34.33 33.53 34.36 33.55 34.38 33.58 34.41 33.6 34.43 33.62 34.46 33.65 34.48 33.67 34.51 33.69 34.53 33.72 34.56 33.74 34.58 33.76 34.6 33.79 34.62 33.81 34.65 33.84 34.67 33.86 34.69 33.89 34.72 33.92 34.74 33.94 34.76 33.97 34.78 33.99 34.8 34.02 34.82 34.05 34.84 34.07 34.86 34.1 34.89 34.13 34.91 34.16 34.93 34.18 34.94 34.21 34.96 34.24 34.98 34.27 35 34.3 35.02 34.33 35.04 34.36 35.06 34.38 35.07 34.41 35.09 34.44 35.11 34.47 35.12 34.5 35.14 34.53 35.16 34.56 35.17 34.59 35.19 34.62 35.2 34.65 35.22 34.68 35.23 34.71 35.25 34.74 35.26 34.77 35.28 34.81 35.29 34.84 35.3 34.87 35.32 34.9 35.33 34.93 35.34 34.96 35.35 34.99 35.37 35.03 35.38 35.06 35.39 35.09 35.4 35.12 35.41 35.16 35.42 35.19 35.43 35.22 35.44 35.25 35.45 35.29 35.46 35.32 35.47 35.35 35.47 35.38 35.48 35.42 35.49 35.45 35.5 35.48 35.5 35.52 35.51 35.55 35.52 35.58 35.52 35.62 35.53 35.65 35.53 35.68 35.54 35.72 35.54 35.75 35.55 35.79 35.55 35.82 35.56 35.85 35.56 35.89 35.56 35.92 35.57 35.96 35.57 35.99 35.57 36.02 35.57 36.06 35.58 36.09 35.58 36.13 35.58 36.16 35.58 36.19 35.58 36.23 35.58 36.26 35.58 36.3 35.58 36.33 35.58 36.36 35.57 36.4 35.57 36.43 35.57 36.47 35.57 36.5 35.57 36.53 35.56 36.57 35.56 36.6 35.56 36.64 35.55 36.67 35.55 36.7 35.54 36.74 35.54 36.77 35.53 36.81 35.53 36.84 35.52 36.87 35.52 36.91 35.51 36.94 35.5 36.97 35.5 37.01 35.49 37.04 35.48 37.07 35.47 37.1 35.47 37.14"/><path class="cls-6" d="M31.03,39.66h.88v.02h0s0,.01,0,.01h0s0,.02,0,.02h0s0,.01,0,.01h0s0,.02,0,.02h0s0,.01,0,.01h0s0,.01,0,.01h0s0,.01,0,.01h0s0,.01,0,.01h0s0,.01,0,.01h0s0,.01,0,.01h0s0,.01,0,.01h0s0,.01,0,.01h0s0,.01,0,.01h0s0,.01,0,.01h0s0,.01,0,.01h0s0,.01,0,.01h0s0,.01,0,.01h0s0,.01,0,.01h0s0,.01,0,.01h0s0,.01,0,.01h0s0,0,0,0h0s0,.01,0,.01h0s0,0,0,0h0s0,.01,0,.01h0s0,0,0,0h0s0,0,0,0h0s0,0,0,0h0s0,0,0,0h0s0,0,0,0h0s0,0,0,0h0s0,0,0,0h0s0,0,0,0h0s0,0,0,0h0s0,0,0,0h0s0,0,0,0h0s0,0,0,0h0s0,0,0,0h0s0,0,0,0h0s0,0,0,0h0s0,0,0,0h-.01s0,0,0,0h-.01s0,0,0,0h0s0,0,0,0h-.01s0,0,0,0h-.04s0,0,0,0h-.01s0,0,0,0h0s0,0,0,0h0s0,0,0,0h-.01s0,0,0,0h0s0,0,0,0h0s0,0,0,0h0s0,0,0,0h0s0,0,0,0h0s0,0,0,0h0s0,0,0,0h0s0,0,0,0h0s0,0,0,0h0s0,0,0,0h0s0,0,0,0h0s0,0,0,0h0s0,0,0,0h0s0,0,0,0h0s0,0,0,0h0s0,0,0,0h0s0-.01,0-.01h0s0,0,0,0h0s0-.01,0-.01h0s0,0,0,0h0s0-.01,0-.01h0s0-.01,0-.01h0s0-.01,0-.01h0s0-.01,0-.01h0s0-.01,0-.01h0s0-.01,0-.01h0s0-.01,0-.01h0s0-.01,0-.01h0s0-.01,0-.01h0s0-.01,0-.01h0s0-.01,0-.01h0s0-.01,0-.01h0s0-.01,0-.01h0s0-.01,0-.01h0s0-.01,0-.01h0s0-.01,0-.01h0s0-.01,0-.01h0s0-.02,0-.02h0s0-.01,0-.01h0v-.02h0v-.02ZM29.4,39.17h-.03s0,0,0,0h0s0,0,0,0h0s0,0,0,0h0s0,0,0,0h0s0,0,0,0h0s0,0,0,0h0s0,0,0,0h0s0,0,0,0h0s0,0,0,0h0s0,0,0,0h0s0,0,0,0h0s0,0,0,0h0s0,0,0,0h0s0-.01,0-.01h0s0,0,0,0h0s0-.02,0-.02h0v-.02h0s0-.02,0-.02h0s0-.01,0-.01h0s0-.02,0-.02h0s0-.01,0-.01h0s0-.01,0-.01h0s0-.01,0-.01h0s0-.01,0-.01h0s0,0,0,0h0s0-.01,0-.01h0s0,0,0,0h0s0,0,0,0h0s0,0,0,0h0s0-.02,0-.02h0s0-.02,0-.02h0s.02-.02.02-.02l.02-.02.02-.02.02-.02.02-.02.02-.02.02-.02v-.02s.03-.02.03-.02l.02-.02v-.02s.03-.02.03-.02v-.02s.03-.02.03-.02v-.02s.03-.02.03-.02v-.02s.03-.02.03-.02v-.02s.03-.02.03-.02v-.02s.03-.02.03-.02v-.02s.03-.02.03-.02v-.02s.02-.02.02-.02v-.02s.02-.02.02-.02v-.02s.02-.02.02-.02v-.02s.02-.02.02-.02v-.02s.02-.02.02-.02v-.02s.02-.02.02-.02v-.02s.02-.02.02-.02v-.02s.02-.02.02-.02v-.02s.02-.02.02-.02v-.02s.02-.02.02-.02v-.02s.02-.02.02-.02v-.02s.01-.02.01-.02v-.02s.01-.02.01-.02v-.02s.01-.02.01-.02v-.02s.01-.02.01-.02v-.02s.01-.02.01-.02v-.02s.01-.02.01-.02v-.02s.01-.02.01-.02v-.02s0-.02,0-.02v-.02s.01-.02.01-.02v-.02s0-.02,0-.02v-.02s0-.02,0-.02v-.02s0-.02,0-.02v-.02s0-.02,0-.02v-.02s0-.02,0-.02v-.02s0-.02,0-.02v-.02s0-.02,0-.02v-.02s0-.02,0-.02v-.02s0-.02,0-.02v-.02s0-.02,0-.02v-.02s0-.02,0-.02v-.02s0-.02,0-.02v-.02s0-.02,0-.02v-.05s0-.02,0-.02v-.05s0-.02,0-.02v-.16s0-.02,0-.02v-.05s0-.02,0-.02v-.05s0-.02,0-.02v.03s0-.02,0-.02v-.06s0-.02,0-.02v-.06s0-.02,0-.02v-.02s0-.02,0-.02v-.02s0-.02,0-.02v-.02s0-.02,0-.02v-.02s0-.02,0-.02v-.02s0-.02,0-.02v-.02s0-.02,0-.02v-.02s.01-.02.01-.02v-.02s.01-.02.01-.02v-.02s.01-.02.01-.02v-.02s.01-.02.01-.02v-.02s.02-.02.02-.02v-.02s.02-.02.02-.02v-.02s.02-.02.02-.02v-.02s.02-.02.02-.02v-.02s.02-.02.02-.02v-.02s.02-.02.02-.02v-.02s.02-.02.02-.02v-.02s.02-.02.02-.02v-.02s.02-.02.02-.02v-.02s.03-.02.03-.02v-.02s.03-.01.03-.01v-.02s.03-.02.03-.02h.01s.01-.03.01-.03h.01s.01-.03.01-.03h.01s.02-.03.02-.03h.02s.01-.03.01-.03h.02s.02-.03.02-.03h.02s.02-.03.02-.03h.02s.02-.02.02-.02h.02s.02-.02.02-.02h.02s.02-.02.02-.02h.02s.02-.02.02-.02h.02s.02-.02.02-.02h.02s.02-.02.02-.02h.02s.02-.02.02-.02h.02s.02-.02.02-.02h.02s.02-.01.02-.01h.02s.02-.01.02-.01h.02s.02-.01.02-.01h.02s.02-.01.02-.01h.02s.02-.01.02-.01h.02s.02,0,.02,0h.02s.02,0,.02,0h.02s.02,0,.02,0h.02s.02,0,.02,0h.02s.02,0,.02,0h.02s.02,0,.02,0h.02s.02,0,.02,0h.08s.02,0,.02,0h.02s.02,0,.02,0h.02s.02,0,.02,0h.02s.02,0,.02,0h.02s.02,0,.02,0h.02s.02,0,.02,0h.02s.02.01.02.01h.02s.02.01.02.01h.02s.02.01.02.01h.02s.02.01.02.01h.02s.02.01.02.01h.02s.02.02.02.02h.02s.02.02.02.02h.02s.02.02.02.02h.02s.02.02.02.02h.02s.02.02.02.02h.02s.02.02.02.02h.02s.02.02.02.02h.02s.02.02.02.02h.02s.02.02.02.02h.02s.02.03.02.03h.02s.02.03.02.03h.01s.02.03.02.03h.01s.01.03.01.03h.02s.01.03.01.03h.01s.01.03.01.03v.02s.03.01.03.01v.02s.03.02.03.02v.02s.03.02.03.02v.02s.02.02.02.02v.02s.02.02.02.02v.02s.02.02.02.02v.02s.02.02.02.02v.02s.02.02.02.02v.02s.02.02.02.02v.02s.02.02.02.02v.02s.02.02.02.02v.02s.01.02.01.02v.02s.01.02.01.02v.02s.01.02.01.02v.02s.01.02.01.02v.02s0,.02,0,.02v.02s0,.02,0,.02v.02s0,.02,0,.02v.02s0,.02,0,.02v.02s0,.02,0,.02v.02s0,.02,0,.02v.02s0,.02,0,.02v.02s0,.02,0,.02v.11s0,.02,0,.02v-.05s0,.02,0,.02v.02s0,.02,0,.02v.02s0,.02,0,.02v.05s0,.02,0,.02v.07s0,.02,0,.02v.07s0,.02,0,.02v.07s0,.02,0,.02v.02s0,.02,0,.02v.02s0,.02,0,.02v.05s0,.02,0,.02v.02s0,.02,0,.02v.02s0,.02,0,.02v.02s0,.02,0,.02v.02s0,.02,0,.02v.02s0,.02,0,.02v.02s0,.02,0,.02v.02s0,.02,0,.02v.02s0,.02,0,.02v.02s0,.02,0,.02v.02s0,.02,0,.02v.02s0,.02,0,.02v.02s0,.02,0,.02v.02s.01.02.01.02v.02s.01.02.01.02v.02s.01.02.01.02v.02s.01.02.01.02v.02s.01.02.01.02v.02s.01.02.01.02v.02s.02.02.02.02v.02s.01.02.01.02v.02s.02.02.02.02v.02s.02.02.02.02v.02s.02.02.02.02v.02s.02.02.02.02v.02s.02.02.02.02v.02s.02.02.02.02v.02s.02.02.02.02v.02s.02.02.02.02v.02s.02.02.02.02v.02s.02.02.02.02v.02s.03.02.03.02v.02s.03.02.03.02v.02s.03.02.03.02v.02s.03.02.03.02v.02s.03.02.03.02v.02s.03.02.03.02v.02s.03.02.03.02v.02s.03.02.03.02l.02.02v.02s.03.02.03.02l.02.02.02.02.02.02.02.02h.02s0,.02,0,.02h0s0,.02,0,.02h0s0,.02,0,.02h0s0,0,0,0h0s0,0,0,0h0s0,0,0,0h0s0,0,0,0h0s0,.01,0,.01h0s0,.01,0,.01h0s0,.01,0,.01h0s0,.01,0,.01h0s0,.01,0,.01h0s0,.01,0,.01h0s0,.02,0,.02h0s0,.01,0,.01h0v.02h0s0,.02,0,.02h0s0,.01,0,.01h0s0,.01,0,.01h0s0,0,0,0h0s0,0,0,0h0s0,0,0,0h0s0,0,0,0h0s0,0,0,0h0s0,0,0,0h0s0,0,0,0h0s0,0,0,0h0s0,0,0,0h0s0,0,0,0h0s0,0,0,0h0s0,0,0,0h0s0,0,0,0h0s0,0,0,0h0s0,0,0,0h-4.17ZM29.4,39.66h-.05s0,0,0,0h-.02s0,0,0,0h0s0,0,0,0h-.02s0,0,0,0h0s0,0,0,0h0s0,0,0,0h0s0,0,0,0h0s0,0,0,0h0s0,0,0,0h0s0,0,0,0h0s0,0,0,0h0s0,0,0,0h0s0,0,0,0h0s0,0,0,0h0s0-.01,0-.01h0s0-.01,0-.01h0s0-.01,0-.01h0s0-.01,0-.01h0s0-.01,0-.01h0s0-.01,0-.01h0s0-.01,0-.01h0s0-.01,0-.01h0s0-.02,0-.02h0s0-.01,0-.01h0s0-.02,0-.02h0s0-.01,0-.01h0s0-.02,0-.02h0s0-.02,0-.02h0s0-.02,0-.02h0s0-.02,0-.02h0s0-.02,0-.02h0s0-.02,0-.02h0s0-.01,0-.01h0s0-.02,0-.02h0s0-.02,0-.02h0s0-.02,0-.02h0s0-.01,0-.01h0s0-.02,0-.02h0s0-.01,0-.01h0s0-.01,0-.01h0s0-.02,0-.02h0s0-.02,0-.02h0s0-.01,0-.01h0s0-.01,0-.01h0v-.02h0s0-.01,0-.01h0v-.02h0v-.02h0v-.03h0s0-.02,0-.02h0v-.02h0s0-.02,0-.02h0s0-.02,0-.02h0s0-.02,0-.02h0s0-.02,0-.02h0s0-.02,0-.02h0s0-.02,0-.02h0s0-.02,0-.02h0s0-.02,0-.02h0s0-.02,0-.02h0s0-.02,0-.02h0s0-.02,0-.02h0s0-.02,0-.02h0s0-.01,0-.01h0s0-.02,0-.02h0s0-.01,0-.01h0s0-.01,0-.01h0s0-.01,0-.01h0s0-.01,0-.01h0s0-.01,0-.01h0s0-.01,0-.01h0s0-.01,0-.01h0s0-.01,0-.01h0s0-.01,0-.01h0s0-.01,0-.01h0s0,0,0,0h0s0,0,0,0h0s0,0,0,0h0s0,0,0,0h0s0,0,0,0h0s0,0,0,0h0s0,0,0,0h0s0,0,0,0h0s0,0,0,0h0s0,0,0,0h0s0,0,0,0h0s0,0,0,0h0s0,0,0,0h0s0,0,0,0h0s0,0,0,0h0s0,0,0,0h0s0,0,0,0h0s0,0,0,0h0s0,0,0,0h0s0,0,0,0h0s0-.01,0-.01h0s0-.01,0-.01h0s0-.01,0-.01h0s0-.01,0-.01h.01s.01-.03.01-.03h.01s.01-.03.01-.03h.01s.01-.03.01-.03h.01s.01-.03.01-.03h.01s0-.03,0-.03h.01s.01-.03.01-.03h0s0-.03,0-.03v-.02s.02-.01.02-.01h0s0-.03,0-.03h0s0-.03,0-.03v-.02s.02-.01.02-.01v-.02s.02-.02.02-.02v-.02s.01-.02.01-.02v-.02s.02-.02.02-.02v-.02s.01-.02.01-.02v-.02s.01-.02.01-.02v-.02s.01-.02.01-.02v-.02s.01-.02.01-.02v-.02s.01-.02.01-.02v-.02s.01-.02.01-.02v-.02s.01-.02.01-.02v-.02s.01-.02.01-.02v-.02s.01-.02.01-.02v-.02s.01-.02.01-.02v-.02s0-.02,0-.02v-.02s0-.02,0-.02v-.02s0-.02,0-.02v-.02s0-.02,0-.02v-.02s0-.02,0-.02v-.02s0-.02,0-.02v-.02s0-.02,0-.02v-.02s0-.02,0-.02v-.02s0-.02,0-.02v-.02s0-.02,0-.02v-.02s0-.02,0-.02v-.02s0-.02,0-.02v-.02s0-.02,0-.02v-.02s0-.02,0-.02v-.02s0-.02,0-.02v-.04s0-.02,0-.02v-.02s0-.02,0-.02v-.02s0-.02,0-.02v-.04s0-.02,0-.02v-.15s0-.02,0-.02v-.06s0-.02,0-.02v-.02s0-.02,0-.02v-.03s0-.02,0-.02v-.12s0-.03,0-.03v-.05s0-.03,0-.03v-.02s0-.02,0-.02v-.02s0-.03,0-.03v-.02s0-.02,0-.02v-.02s0-.02,0-.02v-.02s.01-.03.01-.03v-.02s.01-.02.01-.02v-.02s.01-.02.01-.02v-.02s.01-.02.01-.02v-.02s.02-.02.02-.02v-.02s.02-.02.02-.02v-.02s.02-.02.02-.02v-.02s.02-.02.02-.02v-.02s.02-.02.02-.02v-.02s.02-.02.02-.02v-.02s.02-.02.02-.02v-.02s.02-.02.02-.02v-.02s.03-.02.03-.02v-.02s.03-.02.03-.02v-.02s.03-.02.03-.02v-.02s.03-.02.03-.02v-.02s.03-.02.03-.02v-.02s.03-.02.03-.02l.02-.02v-.02s.03-.02.03-.02l.02-.02.02-.02.02-.02.02-.02.02-.02.02-.02.02-.02.02-.02.02-.02.02-.02h.02s.02-.03.02-.03h.02s.02-.03.02-.03h.02s.02-.03.02-.03h.02s.02-.03.02-.03h.02s.02-.03.02-.03h.02s.02-.03.02-.03h.02s.02-.03.02-.03h.02s.02-.03.02-.03h.02s.02-.02.02-.02h.02s.02-.02.02-.02h.02s.02-.02.02-.02h.02s.02-.02.02-.02h.02s.02-.02.02-.02h.02s.02-.02.02-.02h.02s.02-.02.02-.02h.02s.02-.01.02-.01h.02s.02-.01.02-.01h.02s.02-.01.02-.01v-.6h0s0-.02,0-.02h0s0-.02,0-.02h0s0-.02,0-.02h0s0-.02,0-.02h0s0-.02,0-.02h0s0-.02,0-.02h0s0-.02,0-.02h0s0-.02,0-.02h0s0-.02,0-.02h0s0-.02,0-.02h0s0-.02,0-.02h0s0-.02,0-.02h0s0-.02,0-.02h0s0-.02,0-.02h0s0-.02,0-.02h0s0-.02,0-.02h0s0-.01,0-.01h0s.01-.01.01-.01h0s.01-.01.01-.01h0s.01-.01.01-.01h.01s.01-.01.01-.01h.01s.01,0,.01,0h.01s.01,0,.01,0h.01s.01,0,.01,0h.01s.01,0,.01,0h.01s.01,0,.01,0h.01s.01,0,.01,0h.01s.01,0,.01,0h.07s.01,0,.01,0h.01s.01,0,.01,0h.01s.01,0,.01,0h.01s.01,0,.01,0h.01s.01,0,.01,0h.01s.01,0,.01,0h.01s.01.01.01.01h.01s.01.01.01.01h.01s0,.01,0,.01h.01s0,.01,0,.01h0s.01.01.01.01h0s0,.02,0,.02h0s0,.02,0,.02h0s0,.02,0,.02h0s0,.02,0,.02h0s0,.02,0,.02h0s0,.02,0,.02h0s0,.02,0,.02h0s0,.02,0,.02h0s0,.02,0,.02h0s0,.02,0,.02h0s0,.02,0,.02h0s0,.02,0,.02h0s0,.02,0,.02h0s0,.02,0,.02h0v.02h0v.03h0v.62h.02s.02.01.02.01h.02s.02.01.02.01h.02s.02.01.02.01h.02s.02.02.02.02h.02s.02.02.02.02h.02s.02.02.02.02h.02s.02.02.02.02h.02s.02.02.02.02h.02s.02.02.02.02h.02s.02.02.02.02h.02s.02.03.02.03h.02s.02.03.02.03h.02s.02.03.02.03h.02s.02.03.02.03h.02s.02.03.02.03h.02s.02.03.02.03l.02.02h.02s.02.03.02.03h.02s.02.03.02.03l.02.02.02.02.02.02.02.02.02.02.02.02.02.02.02.02.02.02.02.02v.02s.03.02.03.02v.02s.03.02.03.02v.02s.03.02.03.02v.02s.03.02.03.02v.02s.03.02.03.02v.02s.03.02.03.02v.02s.02.02.02.02v.02s.02.02.02.02v.02s.02.02.02.02v.02s.02.02.02.02v.02s.02.02.02.02v.02s.02.02.02.02v.02s.02.02.02.02v.02s.02.02.02.02v.02s.01.02.01.02v.02s.01.02.01.02v.02s.01.02.01.02v.02s.01.02.01.02v.03s.01.02.01.02v.02s0,.02,0,.02v.02s0,.02,0,.02v.03s0,.02,0,.02v.02s0,.02,0,.02v.03s0,.02,0,.02v.02s0,.03,0,.03v.02s0,.03,0,.03v.12s0,.03,0,.03v-.06s0,.02,0,.02v.04s0,.02,0,.02v.02s0,.02,0,.02v.02s0,.02,0,.02v.08s0,.02,0,.02v.06s0,.02,0,.02v.06s0,.02,0,.02v.04s0,.02,0,.02v.02s0,.02,0,.02v.04s0,.02,0,.02v.02s0,.02,0,.02v.02s0,.02,0,.02v.02s0,.02,0,.02v.02s0,.02,0,.02v.02s0,.02,0,.02v.02s0,.02,0,.02v.02s0,.02,0,.02v.02s0,.02,0,.02v.02s0,.02,0,.02v.02s0,.02,0,.02v.02s0,.02,0,.02v.02s0,.02,0,.02v.02s0,.02,0,.02v.02s0,.02,0,.02v.02s.01.02.01.02v.02s.01.02.01.02v.02s.01.02.01.02v.02s.01.02.01.02v.02s.01.02.01.02v.02s.01.02.01.02v.02s.01.02.01.02v.02s.01.02.01.02v.02s.01.02.01.02v.02s.02.02.02.02v.02s.01.02.01.02v.02s.02.02.02.02v.02s.02.01.02.01v.02s.02.02.02.02h0s0,.03,0,.03h0s.01.03.01.03v.02s.02.01.02.01h.01s0,.03,0,.03h.01s.01.03.01.03h0s.01.03.01.03h.01s.01.03.01.03h.01s.01.03.01.03h.01s.01.03.01.03h.01s0,.02,0,.02h0s0,.01,0,.01h0s0,.01,0,.01h0s0,.01,0,.01h0s0,.01,0,.01h0s0,0,0,0h0s0,0,0,0h0s0,0,0,0h0s0,0,0,0h0s0,0,0,0h0s0,0,0,0h0s0,0,0,0h0s0,0,0,0h0s0,0,0,0h0s0,0,0,0h0s0,0,0,0h0s0,0,0,0h0s0,0,0,0h0s0,0,0,0h0s0,0,0,0h0s0,0,0,0h0s0,0,0,0h0s0,0,0,0h0s0,.01,0,.01h0s0,0,0,0h0s0,.01,0,.01h0s0,.01,0,.01h0s0,.01,0,.01h0s0,.01,0,.01h0s0,.01,0,.01h0s0,.01,0,.01h0s0,.01,0,.01h0s0,.01,0,.01h0s0,.01,0,.01h0s0,.01,0,.01h0s0,.01,0,.01h0s0,.02,0,.02h0s0,.01,0,.01h0s0,.02,0,.02h0s0,.02,0,.02h0s0,.02,0,.02h0s0,.02,0,.02h0s0,.02,0,.02h0s0,.02,0,.02h0s0,.02,0,.02h0s0,.02,0,.02h0s0,.02,0,.02h0s0,.02,0,.02h0s0,.02,0,.02h0s0,.02,0,.02h0s0,.02,0,.02h0v.02h0v.02h0v.02h0s0,.01,0,.01h0v.02h0s0,.02,0,.02h0s0,.01,0,.01h0s0,.02,0,.02h0s0,.01,0,.01h0s0,.02,0,.02h0s0,.01,0,.01h0s0,.02,0,.02h0s0,.02,0,.02h0s0,.02,0,.02h0s0,.02,0,.02h0s0,.02,0,.02h0s0,.02,0,.02h0s0,.02,0,.02h0s0,.02,0,.02h0s0,.02,0,.02h0s0,.01,0,.01h0s0,.02,0,.02h0s0,.02,0,.02h0s0,.01,0,.01h0s0,.02,0,.02h0s0,.01,0,.01h0s0,.01,0,.01h0s0,.01,0,.01h0s0,.01,0,.01h0s0,.01,0,.01h0s0,.01,0,.01h0s0,.01,0,.01h0s0,.01,0,.01h0s0,.01,0,.01h0s0,0,0,0h0s0,0,0,0h0s0,0,0,0h0s0,0,0,0h0s0,0,0,0h0s0,0,0,0h0s0,0,0,0h0s0,0,0,0h0s0,0,0,0h0s0,0,0,0h0s0,0,0,0h0s0,0,0,0h-.02s0,0,0,0h-.02s0,0,0,0h0s0,0,0,0h-1.16v.02h0s0,.02,0,.02h0v.02h0v.02h0v.02h0s0,.02,0,.02h0s0,.02,0,.02h0s0,.02,0,.02h0s0,.02,0,.02h0s0,.02,0,.02h0s0,.02,0,.02h0s0,.02,0,.02h0s0,.02,0,.02h0s0,.02,0,.02h0s0,.02,0,.02h0s0,.02,0,.02h0s0,.02,0,.02h0s0,.02,0,.02h0s0,.02,0,.02h0s0,.02,0,.02h0s0,.02,0,.02h0s0,.02,0,.02h0s0,.02,0,.02h0s0,.02,0,.02h0s0,.02,0,.02h0s0,.02,0,.02h0s0,.02,0,.02h0s0,.02,0,.02h0s0,.02,0,.02h0s0,.02,0,.02h0s0,.02,0,.02h0s0,.02,0,.02h0s0,.02,0,.02h0s0,.02,0,.02h0s0,.01,0,.01h0s0,.01,0,.01h0s0,.01,0,.01h0s0,.01,0,.01h0s0,.01,0,.01h0s0,.01,0,.01h0s0,.01,0,.01h0s0,.01,0,.01h0s0,.01,0,.01h0s0,.01,0,.01h0s0,.01,0,.01h0s0,.01,0,.01h0s0,.01,0,.01h0s0,.01,0,.01h0s0,.01,0,.01h0s0,0,0,0h0s-.01.01-.01.01h0s0,0,0,0h0s-.01,0-.01,0h0s0,0,0,0h0s-.01,0-.01,0h0s-.01,0-.01,0h0s0,0,0,0h-.01s0,0,0,0h-.01s0,0,0,0h-.01s-.01,0-.01,0h0s-.01,0-.01,0h0s-.01,0-.01,0h-.01s0,0,0,0h-.01s-.01,0-.01,0h0s-.01,0-.01,0h-.01s0,0,0,0h-.02s-.01,0-.01,0h-.02s-.01,0-.01,0h-.02s-.01,0-.01,0h-.08s-.01,0-.01,0h-.02s-.01,0-.01,0h-.01s-.01,0-.01,0h-.02s-.01,0-.01,0h0s-.01,0-.01,0h-.01s0,0,0,0h-.01s-.01,0-.01,0h0s-.01,0-.01,0h-.01s0,0,0,0h-.01s0,0,0,0h-.01s0,0,0,0h-.01s0,0,0,0h-.01s0,0,0,0h0s-.01,0-.01,0h0s-.01,0-.01,0h0s0,0,0,0h0s-.01,0-.01,0h0s0,0,0,0h0s0-.01,0-.01h0s0,0,0,0h-.01s0-.01,0-.01h0s0-.01,0-.01h0s0-.01,0-.01h0s0-.01,0-.01h0s0-.01,0-.01h0s0-.01,0-.01h0s0-.01,0-.01h0s0-.01,0-.01h0s0-.01,0-.01h0s0-.01,0-.01h0s0-.01,0-.01h0s0-.01,0-.01h0s0-.01,0-.01h0s0-.01,0-.01h0s0-.01,0-.01h0s0-.02,0-.02h0s0-.02,0-.02h0s0-.02,0-.02h0s0-.02,0-.02h0s0-.02,0-.02h0s0-.02,0-.02h0s0-.02,0-.02h0s0-.02,0-.02h0s0-.02,0-.02h0s0-.02,0-.02h0s0-.02,0-.02h0s0-.02,0-.02h0s0-.02,0-.02h0s0-.02,0-.02h0s0-.02,0-.02h0s0-.02,0-.02h0s0-.02,0-.02h0s0-.02,0-.02h0s0-.02,0-.02h0s0-.02,0-.02h0s0-.02,0-.02h0s0-.02,0-.02h0s0-.02,0-.02h0s0-.02,0-.02h0s0-.02,0-.02h0s0-.02,0-.02h0s0-.02,0-.02h0s0-.02,0-.02h0s0-.02,0-.02h0s0-.02,0-.02h0s0-.02,0-.02h0v-.02h0s0-.02,0-.02h0v-.02h-1.12Z"/><rect class="cls-7" x="2.58" y="22.84" width="7.99" height="1.41" transform="translate(-.54 .16) rotate(-1.32)"/><rect class="cls-8" x="2.58" y="22.84" width="7.99" height="1.41" transform="translate(-.54 .16) rotate(-1.32)"/><path class="cls-1" d="M88.57-19.78c0-23.74-19.25-42.99-42.99-42.99S2.58-43.52,2.58-19.78,21.83,23.22,45.58,23.22c23.74,0,42.99-19.25,42.99-42.99"/><path class="cls-10" d="M-1.66,11.85C-7.72,2.81-11.26-8.06-11.26-19.77s3.61-22.8,9.78-31.89M92.58-51.73c6.21,9.11,9.83,20.11,9.83,31.96s-3.52,22.52-9.55,31.54"/></g><rect class="cls-9" x=".29" y=".29" width="90.59" height="58.3"/><path class="cls-5" d="M102.72,51.25h0v-2.36s0-.01,0-.02v-.02s0-.02,0-.02h0c-.08-1.09-.57-2.07-1.38-2.79-.82-.72-1.87-1.08-2.96-1.01-.14,0-.27.03-.41.05-.18-.78-.61-1.48-1.25-1.99-.75-.6-1.68-.87-2.63-.76-.55.06-1.08.25-1.53.54-.22-.45-.53-.86-.92-1.19-.74-.63-1.68-.93-2.64-.85-.43.03-.85.15-1.23.32v-7.35h0s0-.03,0-.05c0-.01,0-.02,0-.04,0,0,0,0,0,0-.24-1.81-1.9-3.1-3.72-2.86-1.49.19-2.67,1.37-2.86,2.86h0s0,.03,0,.05c0,.01,0,.03,0,.04h0v17.7l-1.25-2.03c-.41-.87-1.13-1.53-2.04-1.86-.92-.34-1.92-.31-2.81.1-.89.41-1.57,1.14-1.92,2.06-.34.92-.31,1.92.1,2.81.03.06.06.12.08.17,0,.01.02.03.02.04h0s0,0,0,0h0s2.6,4.23,2.6,4.23c.44.8.9,1.6,1.39,2.35.46.71.97,1.38,1.47,2.03.39.51.8,1.03,1.16,1.56.16.24.34.48.5.7.42.57.82,1.12,1.08,1.7.17.38.28.8.4,1.25.05.2.11.4.17.6.14.46.28.93.42,1.44h0c.32,1.11,1.34,1.89,2.5,1.89h11.4c1.15,0,2.17-.77,2.49-1.87l2.28-7.91c.21-.55.4-1.11.57-1.67.35-1.22.53-2.45.68-3.6.18-1.39.26-2.81.24-4.22"/><path class="cls-3" d="M96.46,69.08h-11.4c-.51,0-.96-.34-1.1-.83h0c-.15-.52-.29-1-.43-1.46-.06-.18-.11-.37-.16-.56-.13-.48-.26-.97-.47-1.45-.32-.73-.78-1.37-1.23-1.98-.17-.23-.33-.45-.48-.67-.39-.56-.8-1.11-1.21-1.63-.5-.65-.98-1.27-1.4-1.92-.47-.73-.92-1.5-1.34-2.28,0,0,0-.01-.01-.02,0,0,0-.01,0-.02l-2.6-4.22s-.02-.05-.04-.08c-.25-.54-.27-1.14-.06-1.7.21-.56.62-1,1.16-1.25.54-.25,1.14-.27,1.7-.06.56.21,1,.62,1.25,1.16,0,0,0,0,0,0,0,.01.01.02.02.03,0,.01.01.02.02.03,0,0,0,0,0,0l2.61,4.25s0,.01.01.01c0,0,0,.01,0,.02.01.02.02.03.04.05,0,0,0,0,0,0,.01.02.03.03.04.05,0,0,0,0,0,0,.03.03.07.06.1.08h0s.04.03.06.04c0,0,0,0,0,0,.02,0,.03.02.05.02,0,0,.01,0,.02,0,.02,0,.04.01.05.02h.02s.03.01.05.02c0,0,.01,0,.02,0,.02,0,.04,0,.06,0,0,0,0,0,.01,0,.02,0,.04,0,.07,0s.04,0,.07,0c0,0,0,0,.01,0,.04,0,.09-.01.13-.03,0,0,.01,0,.02,0l.05-.02s.01,0,.02,0c.02,0,.04-.02.05-.03,0,0,.01,0,.02,0,0,0,.02,0,.02-.01,0,0,0,0,.01,0,.01,0,.02-.02.03-.02.01,0,.02-.01.03-.02,0,0,.02-.01.03-.02,0,0,.02-.02.03-.03,0,0,.01-.01.02-.02.01-.01.02-.02.03-.03,0,0,.01-.02.02-.02,0,0,.02-.02.02-.03,0,0,.01-.02.02-.03,0-.01.01-.02.02-.03,0-.01.01-.02.02-.03,0,0,.01-.02.01-.03,0-.01.01-.03.02-.04,0,0,0-.02,0-.03,0-.01,0-.03.01-.04,0,0,0-.02,0-.03,0-.01,0-.03,0-.04,0-.01,0-.02,0-.03,0-.01,0-.02,0-.03,0-.01,0-.03,0-.04,0,0,0,0,0-.01v-20.2c.12-.82.78-1.46,1.6-1.57,1.01-.13,1.93.57,2.08,1.57v14.91c0,.4.32.73.73.73s.73-.32.73-.73v-5.88c.36-.36.84-.58,1.35-.62.58-.05,1.14.14,1.58.51.44.37.7.89.76,1.46v4.85c0,.4.32.73.73.73s.73-.32.73-.73v-4.63c.35-.38.83-.63,1.35-.69.56-.06,1.12.1,1.56.45.43.35.71.84.78,1.39v.41h0v4.2c0,.4.32.72.73.72s.72-.32.72-.72v-3.68c.14-.03.28-.05.43-.06.7-.04,1.38.19,1.91.65.53.46.84,1.1.89,1.8v2.32h0c.02,1.36-.06,2.71-.23,4.03-.14,1.09-.31,2.26-.64,3.38-.15.53-.33,1.07-.54,1.58,0,.01,0,.02,0,.03,0,.01,0,.02-.01.03l-2.29,7.93c-.14.49-.59.83-1.1.83"/></g></svg>