<?xml version="1.0" encoding="UTF-8"?><svg id="_图层_2" xmlns="http://www.w3.org/2000/svg" viewBox="0 0 7.14 10.99"><defs><style>.cls-1{fill:none;stroke:#727171;stroke-miterlimit:22.93;stroke-width:.23px;}</style></defs><g id="_图层_1-2"><path class="cls-1" d="M4.85,4.31l-.43-.25.02-.04.02-.04.02-.04.02-.04v-.04s.03-.04.03-.04v-.04s.02-.04.02-.04v-.04s0-.05,0-.05v-.04s0-.05,0-.05v-.04s0-.05,0-.05v-.04s-.01-.04-.01-.04v-.04s-.02-.04-.02-.04v-.04s-.03-.04-.03-.04l-.02-.04-.02-.04-.02-.04-.02-.04-.03-.04-.03-.04-.03-.03-.03-.03-.03-.03-.03-.03-.04-.03-.04-.03-.04-.03-.04-.02-.04-.02-.04-.02-.04-.02-.04-.02h-.04s-.04-.03-.04-.03h-.04s-.04-.02-.04-.02h-.05s-.04-.01-.04-.01h-.05s-.04,0-.04,0h-.05s-.04,0-.04,0h-.04s-.04.01-.04.01h-.04s-.04.02-.04.02h-.04s-.04.03-.04.03l-.04.02-.04.02-.04.02-.04.02-.04.03-.04.03-.04.03-.03.03-.03.03-.03.03-.03.03-.03.04-.03.04-.02.04-.02.04-.02.04-.02.04-.02.04v.04s-.03.04-.03.04v.04s-.02.04-.02.04v.04s-.01.05-.01.05v.04s0,.05,0,.05v.04s0,.05,0,.05v.04s.01.04.01.04v.04s.02.04.02.04v.04s.03.04.03.04l.02.04.02.04.02.04-.43.25-.03-.05-.03-.05-.02-.05-.02-.05-.02-.05-.02-.05-.02-.06v-.05s-.02-.06-.02-.06v-.06s-.02-.06-.02-.06v-.06s0-.06,0-.06v-.06s0-.06,0-.06v-.06s0-.06,0-.06v-.06s.02-.06.02-.06v-.06s.03-.05.03-.05l.02-.05.02-.05.02-.05.02-.05.02-.05.03-.05.03-.05.03-.05.03-.05.04-.04.04-.04.04-.04.04-.04.04-.04.04-.04.04-.04.04-.04.05-.03.05-.03.05-.03.05-.03.05-.03.05-.02.05-.02.05-.02.05-.02.05-.02h.06s.06-.02.06-.02h.06s.06-.01.06-.01h.06s.06,0,.06,0h.11s.06,0,.06,0h.06s.06.01.06.01h.06s.06.02.06.02l.05.02.05.02.05.02.05.02.05.02.05.03.05.03.05.03.05.03.05.03.04.04.04.04.04.04.04.04.04.04.04.04.04.04.03.04.03.05.03.05.03.05.03.05.02.05.02.05.02.05.02.05.02.05v.05s.03.06.03.06v.06s.02.06.02.06v.06s.01.06.01.06v.06s0,.06,0,.06v.06s0,.06,0,.06v.06s-.02.06-.02.06v.06s-.02.05-.02.05l-.02.06-.02.05-.02.05-.02.05-.02.05-.03.05-.03.05ZM6.14,5.05l.43.25.04-.08.04-.08.04-.08.04-.08.03-.08.03-.08.03-.08.03-.08.03-.08.03-.08.02-.08.02-.08.02-.08.02-.08v-.08s.03-.09.03-.09v-.09s.02-.09.02-.09v-.09s0-.09,0-.09v-.09s0-.09,0-.09v-.09s0-.09,0-.09v-.09s-.02-.09-.02-.09v-.09s-.03-.08-.03-.08l-.02-.08-.02-.08-.02-.08-.02-.08-.03-.08-.03-.08-.03-.08-.03-.08-.03-.08-.03-.08-.04-.08-.04-.08-.04-.08-.04-.08-.04-.07-.04-.07-.05-.07-.05-.07-.05-.07-.05-.07-.05-.07-.06-.07-.06-.06-.06-.06-.06-.06-.06-.06-.06-.06-.07-.06-.07-.05-.07-.05-.07-.05-.07-.05-.07-.05-.07-.05-.07-.04-.08-.04-.08-.04-.08-.04-.08-.04-.08-.04-.08-.03-.08-.03-.08-.03-.08-.03-.08-.02-.08-.02-.08-.02-.08-.02-.08-.02h-.09s-.08-.03-.08-.03h-.09s-.09-.02-.09-.02h-.09s-.09,0-.09,0h-.09s-.09,0-.09,0h-.09s-.09,0-.09,0h-.09s-.09.02-.09.02h-.08s-.09.03-.09.03l-.08.02-.08.02-.08.02-.08.02-.08.02-.08.03-.08.03-.08.03-.08.03-.08.04-.08.04-.08.04-.07.04-.08.04-.07.04-.07.05-.07.05-.07.05-.07.05-.07.05-.07.05-.07.06-.06.06-.06.06-.06.06-.06.06-.06.06-.06.07-.05.07-.05.07-.05.07-.05.07-.05.07-.05.07-.04.07-.04.08-.04.08-.04.08-.03.08-.03.08-.03.08-.03.08-.03.08-.03.08-.02.08-.02.08-.02.08-.02.08-.02.08v.08s-.03.09-.03.09v.09s-.02.09-.02.09v.09s0,.09,0,.09v.26s0,.09,0,.09v.09s.02.09.02.09v.09s.03.08.03.08l.02.08.02.08.02.08.02.08.02.08.03.08.03.08.03.08.03.08.03.08.03.08.04.08.04.08.04.08.43-.25-.04-.07-.04-.07-.03-.07-.03-.07-.03-.07-.03-.08-.03-.07-.03-.08-.02-.08-.02-.08-.02-.08-.02-.08v-.08s-.03-.08-.03-.08v-.08s-.02-.08-.02-.08v-.08s0-.08,0-.08v-.08s0-.08,0-.08v-.08s0-.08,0-.08v-.08s.02-.08.02-.08v-.08s.02-.08.02-.08l.02-.08.02-.08.02-.08.02-.08.02-.08.03-.08.03-.07.03-.07.03-.07.03-.07.03-.07.04-.07.04-.07.04-.07.04-.07.04-.07.05-.07.05-.06.05-.06.05-.06.05-.06.06-.06.06-.06.06-.05.06-.05.06-.05.06-.05.06-.05.07-.05.07-.05.07-.04.07-.04.07-.04.07-.04.07-.04.07-.03.07-.03.08-.03.07-.03.08-.03.08-.02.08-.02.08-.02.08-.02h.08s.08-.03.08-.03h.08s.08-.02.08-.02h.08s.08,0,.08,0h.08s.08,0,.08,0h.08s.08,0,.08,0h.08s.08.02.08.02h.08s.08.02.08.02h.08s.08.03.08.03l.08.02.08.02.08.02.08.03.08.03.07.03.07.03.07.03.07.04.07.04.07.04.07.04.07.04.07.05.07.05.06.05.06.05.06.05.06.05.06.05.06.06.05.06.05.06.05.06.05.06.05.06.05.07.04.07.04.07.04.07.04.07.04.07.03.07.03.07.03.07.03.07.03.07.03.08.02.08.02.08.02.08.02.08.02.08v.08s.02.08.02.08v.08s.02.08.02.08v.08s0,.08,0,.08v.08s0,.08,0,.08v.08s0,.08,0,.08v.08s-.02.08-.02.08v.08s-.03.08-.03.08l-.02.08-.02.08-.02.08-.02.08-.03.08-.03.07-.03.08-.03.07-.03.07-.04.07-.04.07-.04.07ZM5.71,4.81l-.43-.25.03-.06.03-.06.03-.06.03-.06.02-.06.02-.06.02-.06.02-.06v-.06s.03-.06.03-.06v-.06s.02-.06.02-.06v-.06s.01-.07.01-.07v-.06s0-.07,0-.07v-.07s0-.06,0-.06v-.07s-.01-.06-.01-.06v-.06s-.02-.06-.02-.06v-.06s-.03-.06-.03-.06l-.02-.06-.02-.06-.02-.06-.02-.06-.03-.06-.03-.06-.03-.06-.03-.06-.03-.06-.04-.05-.04-.05-.04-.05-.04-.05-.04-.05-.04-.05-.04-.05-.05-.05-.05-.04-.05-.04-.05-.04-.05-.04-.05-.04-.05-.04-.06-.03-.06-.03-.06-.03-.06-.03-.06-.03-.06-.02-.06-.02-.06-.02-.06-.02-.06-.02h-.06s-.06-.03-.06-.03h-.06s-.06-.02-.06-.02h-.07s-.06,0-.06,0h-.07s-.06,0-.06,0h-.07s-.06,0-.06,0h-.07s-.06.02-.06.02h-.06s-.06.03-.06.03l-.06.02-.06.02-.06.02-.06.02-.06.02-.06.03-.06.03-.06.03-.06.03-.06.03-.05.04-.05.04-.05.04-.05.04-.05.04-.05.04-.05.05-.04.05-.04.05-.04.05-.04.05-.04.05-.04.05-.03.05-.03.06-.03.06-.03.06-.03.06-.03.06-.02.06-.02.06-.02.06-.02.06-.02.06v.06s-.03.06-.03.06v.06s-.02.06-.02.06v.07s0,.06,0,.06v.07s0,.07,0,.07v.06s0,.07,0,.07v.06s.02.06.02.06v.06s.03.06.03.06l.02.06.02.06.02.06.02.06.02.06.03.06.03.06.03.06.03.06-.43.25-.03-.06-.04-.07-.03-.07-.03-.07-.03-.07-.02-.07-.02-.07-.02-.07-.02-.07-.02-.07-.02-.07v-.07s-.02-.07-.02-.07v-.07s-.02-.07-.02-.07v-.07s0-.07,0-.07v-.15s0-.07,0-.07v-.07s.01-.07.01-.07v-.07s.02-.07.02-.07v-.07s.03-.07.03-.07l.02-.07.02-.07.02-.07.03-.07.03-.07.03-.07.03-.07.03-.07.04-.06.04-.06.04-.06.04-.06.04-.06.04-.06.05-.06.05-.06.05-.05.05-.05.05-.05.05-.05.06-.05.06-.05.06-.04.06-.04.06-.04.06-.04.06-.04.07-.03.06-.03.07-.03.07-.03.07-.03.07-.03.07-.02.07-.02.07-.02.07-.02.07-.02h.07s.07-.02.07-.02h.07s.07-.02.07-.02h.07s.07,0,.07,0h.15s.07,0,.07,0h.07s.07.02.07.02h.07s.07.02.07.02l.07.02.07.02.07.02.07.02.07.02.07.03.07.03.07.03.07.03.07.03.06.03.06.04.06.04.06.04.06.04.06.04.06.05.06.05.05.05.05.05.05.05.05.05.05.06.05.06.04.06.04.06.04.06.04.06.04.06.04.06.03.07.03.07.03.07.03.07.03.07.02.07.02.07.02.07.02.07v.07s.03.07.03.07v.07s.02.07.02.07v.07s0,.07,0,.07v.07s0,.07,0,.07v.07s0,.07,0,.07v.07s-.02.07-.02.07v.07s-.02.07-.02.07l-.02.07-.02.07-.02.07-.02.07-.02.07-.03.07-.03.07-.03.07-.03.07-.03.07-.04.06ZM1.59,10.87h3.95l-1.78-6.64h.04s.04-.03.04-.03l.04-.02.03-.02.03-.02.03-.02.03-.02.03-.03.03-.03.03-.03.02-.03.02-.03.02-.03.02-.03.02-.03.02-.04v-.04s.03-.04.03-.04v-.04s.02-.04.02-.04v-.04s0-.04,0-.04v-.04s0-.04,0-.04v-.04s0-.04,0-.04v-.04s-.02-.04-.02-.04v-.04s-.03-.04-.03-.04l-.02-.04-.02-.03-.02-.03-.02-.03-.02-.03-.03-.03-.03-.03-.03-.03-.03-.03-.03-.02-.03-.02-.03-.02-.03-.02h-.04s-.04-.03-.04-.03h-.04s-.04-.02-.04-.02h-.04s-.04-.01-.04-.01h-.04s-.04,0-.04,0h-.08s-.04,0-.04,0h-.04s-.04.02-.04.02h-.04s-.04.03-.04.03h-.04s-.03.03-.03.03l-.03.02-.03.02-.03.02-.03.03-.03.03-.03.03-.02.03-.02.03-.02.03-.02.03-.02.03-.02.04v.04s-.03.04-.03.04v.04s-.02.04-.02.04v.04s0,.04,0,.04v.04s0,.04,0,.04v.04s0,.04,0,.04v.04s.02.04.02.04v.04s.03.04.03.04l.02.04.02.03.02.03.02.03.02.03.02.03.03.03.03.03.03.03.03.02.03.02.03.02.03.02.04.02h.04s.04.03.04.03l-1.78,6.64Z"/></g></svg>