<?xml version="1.0" encoding="UTF-8"?><svg id="_图层_2" xmlns="http://www.w3.org/2000/svg" viewBox="0 0 46.8 14.72"><defs><style>.cls-1{fill:#424142;stroke-width:0px;}</style></defs><g id="_图层_1-2"><path class="cls-1" d="M19.01,9.5h4.34c.6,0,1.08.51,1.08,1.14s-.48,1.14-1.08,1.14h-4.34v-2.27ZM24.43,4.72c0-.63-.48-1.14-1.08-1.14h-4.34v2.28h4.34c.6,0,1.08-.51,1.08-1.14M18.54,2.32v10.79c0,.89-.68,1.61-1.52,1.61s-1.52-.72-1.52-1.61v-.47c-.14.02-.27.04-.42.04h-4.73c-1.53,0-2.77-1.3-2.77-2.92v-.67H.83c-.52,0-.74-.28-.83-.71l.02-1.75v-.04c.1-.37.33-.61.81-.61h6.75v-.3c0-1.61,1.24-2.92,2.77-2.92h4.73c.14,0,.28.02.42.04v-.47c0-.89.68-1.6,1.52-1.6s1.52.72,1.52,1.6"/><path class="cls-1" d="M30.25,9.01c.6-.6,1.22-1.22,1.88-1.89.92.95,1.86,1.92,2.8,2.89,3.39-3.39,6.7-6.71,10-10.01.67.68,1.29,1.31,1.87,1.9-3.93,3.92-7.9,7.89-11.85,11.82-1.52-1.52-3.11-3.11-4.71-4.71"/></g></svg>