<?xml version="1.0" encoding="UTF-8"?><svg id="_图层_2" xmlns="http://www.w3.org/2000/svg" viewBox="0 0 14 14"><defs><style>.cls-1{fill:#424142;stroke-width:0px;}</style></defs><g id="_图层_1-2"><path class="cls-1" d="M3.5,2.8H.7c-.39,0-.7-.31-.7-.7s.31-.7.7-.7h2.8c.39,0,.7.31.7.7s-.31.7-.7.7M13.3,2.8h-7c-.39,0-.7-.31-.7-.7s.31-.7.7-.7h7c.39,0,.7.31.7.7s-.31.7-.7.7M9.1,7.7H.7c-.39,0-.7-.31-.7-.7s.31-.7.7-.7h8.4c.39,0,.7.31.7.7s-.31.7-.7.7M13.3,7.7h-1.4c-.39,0-.7-.31-.7-.7s.31-.7.7-.7h1.4c.39,0,.7.31.7.7s-.31.7-.7.7M2.1,12.6H.7c-.39,0-.7-.31-.7-.7s.31-.7.7-.7h1.4c.39,0,.7.31.7.7s-.31.7-.7.7M13.3,12.6H4.9c-.39,0-.7-.31-.7-.7s.31-.7.7-.7h8.4c.39,0,.7.31.7.7s-.31.7-.7.7"/><path class="cls-1" d="M4.9,1.4c-.39,0-.7.31-.7.7s.31.7.7.7.7-.31.7-.7-.31-.7-.7-.7M4.9,4.2c-1.16,0-2.1-.94-2.1-2.1S3.74,0,4.9,0s2.1.94,2.1,2.1-.94,2.1-2.1,2.1"/><path class="cls-1" d="M10.5,6.3c-.39,0-.7.31-.7.7s.31.7.7.7.7-.31.7-.7-.31-.7-.7-.7M10.5,9.1c-1.16,0-2.1-.94-2.1-2.1s.94-2.1,2.1-2.1,2.1.94,2.1,2.1-.94,2.1-2.1,2.1"/><path class="cls-1" d="M3.5,11.2c-.39,0-.7.31-.7.7s.31.7.7.7.7-.31.7-.7-.31-.7-.7-.7M3.5,14c-1.16,0-2.1-.94-2.1-2.1s.94-2.1,2.1-2.1,2.1.94,2.1,2.1-.94,2.1-2.1,2.1"/></g></svg>